STARTFONT 2.1
FONT -Adobe-Utopia-Bold-I-Normal--12-120-75-75-P-70-ISO10646-1
SIZE 12 75 75
FONTBOUNDINGBOX 19 22 -3 -7
COMMENT $Xorg: $
COMMENT ISO10646-1 extension by Markus Kuhn <mkuhn@acm.org>, 2001-03-20
STARTPROPERTIES 28
FOUNDRY "Adobe"
FAMILY_NAME "Utopia"
WEIGHT_NAME "Bold"
SLANT "I"
SETWIDTH_NAME "Normal"
ADD_STYLE_NAME ""
PIXEL_SIZE 12
POINT_SIZE 120
RESOLUTION_X 75
RESOLUTION_Y 75
SPACING "P"
AVERAGE_WIDTH 70
CHARSET_REGISTRY "ISO10646"
CHARSET_ENCODING "1"
CAP_HEIGHT 9
X_HEIGHT 6
RELATIVE_SETWIDTH 50
RELATIVE_WEIGHT 70
WEIGHT 208
FACE_NAME "Utopia Bold Italic"
COPYRIGHT "Copyright (c) 1989, 1991 Adobe Systems Incorporated.  All rights reserved."
NOTICE "Utopia is a registered trademark of Adobe Systems Incorporated."
DESTINATION 0
FONT_ASCENT 10
FONT_DESCENT 3
DEFAULT_CHAR 0
_ADOBE_PSFONT "Utopia-BoldItalic"
_DEC_DEVICE_FONTNAMES "PS=Utopia-BoldItalic"
ENDPROPERTIES
CHARS 723
STARTCHAR char0
ENCODING 0
SWIDTH 800 0
DWIDTH 10 0
BBX 9 9 0 0
BITMAP
AA80
0000
8080
0000
8080
0000
8080
0000
AA80
ENDCHAR
STARTCHAR space
ENCODING 32
SWIDTH 210 0
DWIDTH 3 0
BBX 0 0 0 0
BITMAP
ENDCHAR
STARTCHAR exclam
ENCODING 33
SWIDTH 285 0
DWIDTH 4 0
BBX 4 9 0 0
BITMAP
30
30
70
60
60
40
00
C0
C0
ENDCHAR
STARTCHAR quotedbl
ENCODING 34
SWIDTH 455 0
DWIDTH 6 0
BBX 5 4 1 5
BITMAP
D8
D8
90
90
ENDCHAR
STARTCHAR numbersign
ENCODING 35
SWIDTH 560 0
DWIDTH 7 0
BBX 7 9 0 0
BITMAP
14
14
7E
28
28
28
FC
50
50
ENDCHAR
STARTCHAR dollar
ENCODING 36
SWIDTH 560 0
DWIDTH 7 0
BBX 7 11 0 -1
BITMAP
08
3E
6A
68
78
38
3C
2C
AC
F8
20
ENDCHAR
STARTCHAR percent
ENCODING 37
SWIDTH 896 0
DWIDTH 11 0
BBX 10 9 1 0
BITMAP
7100
DF00
9200
B400
EDC0
0B40
1240
32C0
2380
ENDCHAR
STARTCHAR ampersand
ENCODING 38
SWIDTH 752 0
DWIDTH 10 0
BBX 10 9 0 0
BITMAP
1E00
3300
3200
1CC0
38C0
6C80
C700
C700
7980
ENDCHAR
STARTCHAR quotesingle
ENCODING 39
SWIDTH 246 0
DWIDTH 3 0
BBX 2 4 1 5
BITMAP
C0
C0
80
80
ENDCHAR
STARTCHAR parenleft
ENCODING 40
SWIDTH 350 0
DWIDTH 4 0
BBX 5 11 0 -2
BITMAP
18
30
60
60
C0
C0
C0
C0
C0
60
20
ENDCHAR
STARTCHAR parenright
ENCODING 41
SWIDTH 350 0
DWIDTH 5 0
BBX 5 11 -1 -2
BITMAP
20
30
18
18
18
18
18
30
30
60
C0
ENDCHAR
STARTCHAR asterisk
ENCODING 42
SWIDTH 500 0
DWIDTH 6 0
BBX 6 6 0 3
BITMAP
10
54
38
70
A8
20
ENDCHAR
STARTCHAR plus
ENCODING 43
SWIDTH 600 0
DWIDTH 7 0
BBX 6 5 0 1
BITMAP
30
30
FC
30
30
ENDCHAR
STARTCHAR comma
ENCODING 44
SWIDTH 280 0
DWIDTH 3 0
BBX 3 4 -1 -2
BITMAP
60
60
40
80
ENDCHAR
STARTCHAR hyphen
ENCODING 45
SWIDTH 392 0
DWIDTH 5 0
BBX 3 1 1 3
BITMAP
E0
ENDCHAR
STARTCHAR period
ENCODING 46
SWIDTH 280 0
DWIDTH 3 0
BBX 2 2 0 0
BITMAP
C0
C0
ENDCHAR
STARTCHAR slash
ENCODING 47
SWIDTH 260 0
DWIDTH 5 0
BBX 4 9 0 0
BITMAP
30
30
30
60
60
60
C0
C0
C0
ENDCHAR
STARTCHAR zero
ENCODING 48
SWIDTH 560 0
DWIDTH 7 0
BBX 7 9 0 0
BITMAP
3C
66
66
E6
C6
CE
CC
CC
78
ENDCHAR
STARTCHAR one
ENCODING 49
SWIDTH 560 0
DWIDTH 7 0
BBX 4 9 1 0
BITMAP
30
70
30
30
70
60
60
60
F0
ENDCHAR
STARTCHAR two
ENCODING 50
SWIDTH 560 0
DWIDTH 7 0
BBX 7 9 0 0
BITMAP
3C
66
66
0C
18
30
62
FC
FC
ENDCHAR
STARTCHAR three
ENCODING 51
SWIDTH 560 0
DWIDTH 7 0
BBX 7 9 0 0
BITMAP
3C
66
66
0C
38
0C
CC
CC
78
ENDCHAR
STARTCHAR four
ENCODING 52
SWIDTH 560 0
DWIDTH 7 0
BBX 7 9 0 0
BITMAP
18
18
30
2C
6C
CC
FE
18
3C
ENDCHAR
STARTCHAR five
ENCODING 53
SWIDTH 560 0
DWIDTH 7 0
BBX 7 9 0 0
BITMAP
3E
3E
60
78
4C
0C
CC
CC
78
ENDCHAR
STARTCHAR six
ENCODING 54
SWIDTH 560 0
DWIDTH 7 0
BBX 7 9 0 0
BITMAP
3C
66
60
60
F8
CC
CC
CC
78
ENDCHAR
STARTCHAR seven
ENCODING 55
SWIDTH 560 0
DWIDTH 7 0
BBX 6 9 1 0
BITMAP
FC
FC
88
10
30
30
60
60
60
ENDCHAR
STARTCHAR eight
ENCODING 56
SWIDTH 560 0
DWIDTH 7 0
BBX 7 9 0 0
BITMAP
3C
66
66
76
38
DC
CC
CC
78
ENDCHAR
STARTCHAR nine
ENCODING 57
SWIDTH 560 0
DWIDTH 7 0
BBX 7 9 0 0
BITMAP
3C
66
66
66
3E
0C
0C
CC
78
ENDCHAR
STARTCHAR colon
ENCODING 58
SWIDTH 280 0
DWIDTH 3 0
BBX 3 6 0 0
BITMAP
60
60
00
00
C0
C0
ENDCHAR
STARTCHAR semicolon
ENCODING 59
SWIDTH 280 0
DWIDTH 3 0
BBX 4 8 -1 -2
BITMAP
30
30
00
00
60
60
40
80
ENDCHAR
STARTCHAR less
ENCODING 60
SWIDTH 600 0
DWIDTH 7 0
BBX 6 5 0 1
BITMAP
0C
30
C0
30
0C
ENDCHAR
STARTCHAR equal
ENCODING 61
SWIDTH 600 0
DWIDTH 7 0
BBX 6 3 0 2
BITMAP
FC
00
FC
ENDCHAR
STARTCHAR greater
ENCODING 62
SWIDTH 600 0
DWIDTH 7 0
BBX 6 5 0 1
BITMAP
C0
30
0C
30
C0
ENDCHAR
STARTCHAR question
ENCODING 63
SWIDTH 454 0
DWIDTH 6 0
BBX 5 9 0 0
BITMAP
70
D8
18
70
C0
E0
00
C0
C0
ENDCHAR
STARTCHAR at
ENCODING 64
SWIDTH 828 0
DWIDTH 11 0
BBX 10 9 0 0
BITMAP
1F00
2080
4F40
9B40
B640
AE80
B700
4000
3F00
ENDCHAR
STARTCHAR A
ENCODING 65
SWIDTH 634 0
DWIDTH 8 0
BBX 9 9 -1 0
BITMAP
0600
0E00
0E00
1600
1300
3F00
2300
4300
E780
ENDCHAR
STARTCHAR B
ENCODING 66
SWIDTH 680 0
DWIDTH 9 0
BBX 8 9 0 0
BITMAP
7E
33
33
36
7E
63
63
67
FE
ENDCHAR
STARTCHAR C
ENCODING 67
SWIDTH 672 0
DWIDTH 8 0
BBX 8 9 0 0
BITMAP
1F
73
61
E0
E0
C0
C2
C6
7C
ENDCHAR
STARTCHAR D
ENCODING 68
SWIDTH 774 0
DWIDTH 10 0
BBX 9 9 0 0
BITMAP
7F00
3180
3180
3180
7380
6380
6300
6700
FC00
ENDCHAR
STARTCHAR E
ENCODING 69
SWIDTH 622 0
DWIDTH 8 0
BBX 8 9 0 0
BITMAP
7F
33
31
34
7C
64
62
66
FE
ENDCHAR
STARTCHAR F
ENCODING 70
SWIDTH 585 0
DWIDTH 7 0
BBX 8 9 0 0
BITMAP
7F
33
31
34
7C
64
60
60
F0
ENDCHAR
STARTCHAR G
ENCODING 71
SWIDTH 726 0
DWIDTH 9 0
BBX 8 9 1 0
BITMAP
1F
73
61
E0
E0
CF
C6
C6
7C
ENDCHAR
STARTCHAR H
ENCODING 72
SWIDTH 800 0
DWIDTH 10 0
BBX 10 9 0 0
BITMAP
7BC0
3180
3180
3180
7F80
6300
6300
6300
F780
ENDCHAR
STARTCHAR I
ENCODING 73
SWIDTH 386 0
DWIDTH 5 0
BBX 5 9 0 0
BITMAP
78
30
30
30
70
60
60
60
F0
ENDCHAR
STARTCHAR J
ENCODING 74
SWIDTH 388 0
DWIDTH 5 0
BBX 6 11 -1 -2
BITMAP
3C
18
18
18
38
30
30
30
30
60
C0
ENDCHAR
STARTCHAR K
ENCODING 75
SWIDTH 688 0
DWIDTH 9 0
BBX 9 9 0 0
BITMAP
7B80
3300
3200
3400
7C00
6E00
6600
6700
F380
ENDCHAR
STARTCHAR L
ENCODING 76
SWIDTH 586 0
DWIDTH 7 0
BBX 7 9 0 0
BITMAP
78
30
30
30
70
60
60
62
FE
ENDCHAR
STARTCHAR M
ENCODING 77
SWIDTH 921 0
DWIDTH 12 0
BBX 12 9 0 0
BITMAP
7070
30E0
38E0
3960
7EE0
5EC0
4CC0
4CC0
E9E0
ENDCHAR
STARTCHAR N
ENCODING 78
SWIDTH 741 0
DWIDTH 9 0
BBX 10 9 -1 0
BITMAP
71C0
3880
3880
2C80
6D00
4700
4700
4300
E300
ENDCHAR
STARTCHAR O
ENCODING 79
SWIDTH 761 0
DWIDTH 10 0
BBX 8 9 1 0
BITMAP
1E
73
63
E3
E7
C7
C6
CE
78
ENDCHAR
STARTCHAR P
ENCODING 80
SWIDTH 660 0
DWIDTH 8 0
BBX 8 9 0 0
BITMAP
7E
33
33
33
76
7C
60
60
F0
ENDCHAR
STARTCHAR Q
ENCODING 81
SWIDTH 761 0
DWIDTH 10 0
BBX 8 12 1 -3
BITMAP
1E
73
63
E3
E7
C7
C6
CE
78
30
38
1E
ENDCHAR
STARTCHAR R
ENCODING 82
SWIDTH 681 0
DWIDTH 9 0
BBX 9 9 0 0
BITMAP
7E00
3300
3300
3600
7E00
6600
6700
6300
F380
ENDCHAR
STARTCHAR S
ENCODING 83
SWIDTH 551 0
DWIDTH 7 0
BBX 7 9 0 0
BITMAP
3E
66
62
70
38
1C
8C
CC
F8
ENDCHAR
STARTCHAR T
ENCODING 84
SWIDTH 616 0
DWIDTH 8 0
BBX 8 9 0 0
BITMAP
FF
DB
99
18
38
30
30
30
78
ENDCHAR
STARTCHAR U
ENCODING 85
SWIDTH 776 0
DWIDTH 10 0
BBX 9 9 1 0
BITMAP
F780
6300
6300
6300
E700
C600
C600
CE00
7C00
ENDCHAR
STARTCHAR V
ENCODING 86
SWIDTH 630 0
DWIDTH 8 0
BBX 8 9 0 0
BITMAP
F7
62
62
64
74
38
38
30
30
ENDCHAR
STARTCHAR W
ENCODING 87
SWIDTH 920 0
DWIDTH 12 0
BBX 13 9 0 0
BITMAP
F338
6310
6720
6720
6B40
6B40
7380
7380
6300
ENDCHAR
STARTCHAR X
ENCODING 88
SWIDTH 630 0
DWIDTH 8 0
BBX 8 9 0 0
BITMAP
7B
32
34
38
18
1C
2C
4C
DE
ENDCHAR
STARTCHAR Y
ENCODING 89
SWIDTH 622 0
DWIDTH 8 0
BBX 8 9 1 0
BITMAP
F7
66
64
68
30
70
60
60
F0
ENDCHAR
STARTCHAR Z
ENCODING 90
SWIDTH 618 0
DWIDTH 8 0
BBX 8 9 0 0
BITMAP
7F
4E
0C
18
38
30
60
E2
FE
ENDCHAR
STARTCHAR bracketleft
ENCODING 91
SWIDTH 350 0
DWIDTH 4 0
BBX 5 11 0 -2
BITMAP
38
30
30
60
60
60
60
C0
C0
C0
E0
ENDCHAR
STARTCHAR backslash
ENCODING 92
SWIDTH 460 0
DWIDTH 6 0
BBX 4 9 1 0
BITMAP
C0
C0
C0
60
60
60
30
30
30
ENDCHAR
STARTCHAR bracketright
ENCODING 93
SWIDTH 350 0
DWIDTH 4 0
BBX 5 11 -1 -2
BITMAP
38
18
18
30
30
30
30
60
60
60
E0
ENDCHAR
STARTCHAR asciicircum
ENCODING 94
SWIDTH 600 0
DWIDTH 7 0
BBX 5 6 1 3
BITMAP
20
20
50
50
88
88
ENDCHAR
STARTCHAR underscore
ENCODING 95
SWIDTH 500 0
DWIDTH 6 0
BBX 6 1 0 -2
BITMAP
FC
ENDCHAR
STARTCHAR grave
ENCODING 96
SWIDTH 400 0
DWIDTH 5 0
BBX 3 2 1 7
BITMAP
C0
60
ENDCHAR
STARTCHAR a
ENCODING 97
SWIDTH 596 0
DWIDTH 7 0
BBX 7 6 0 0
BITMAP
3C
6C
CC
D8
DA
6C
ENDCHAR
STARTCHAR b
ENCODING 98
SWIDTH 586 0
DWIDTH 7 0
BBX 7 10 0 0
BITMAP
70
30
70
60
6C
76
E6
CE
EC
D8
ENDCHAR
STARTCHAR c
ENCODING 99
SWIDTH 456 0
DWIDTH 6 0
BBX 6 6 0 0
BITMAP
38
6C
E0
C0
C8
70
ENDCHAR
STARTCHAR d
ENCODING 100
SWIDTH 609 0
DWIDTH 8 0
BBX 8 10 0 0
BITMAP
07
03
07
06
3E
66
EE
CC
DD
6E
ENDCHAR
STARTCHAR e
ENCODING 101
SWIDTH 476 0
DWIDTH 6 0
BBX 6 6 0 0
BITMAP
38
6C
F8
C0
C8
70
ENDCHAR
STARTCHAR f
ENCODING 102
SWIDTH 348 0
DWIDTH 4 0
BBX 8 13 -2 -3
BITMAP
07
0D
0C
0C
3E
18
18
18
38
30
30
B0
E0
ENDCHAR
STARTCHAR g
ENCODING 103
SWIDTH 522 0
DWIDTH 7 0
BBX 8 9 -1 -3
BITMAP
1F
36
36
3C
18
3C
6E
C6
7C
ENDCHAR
STARTCHAR h
ENCODING 104
SWIDTH 629 0
DWIDTH 8 0
BBX 8 10 0 0
BITMAP
70
30
30
70
6C
76
66
EE
CD
CE
ENDCHAR
STARTCHAR i
ENCODING 105
SWIDTH 339 0
DWIDTH 4 0
BBX 4 9 0 0
BITMAP
30
30
00
E0
60
60
E0
D0
E0
ENDCHAR
STARTCHAR j
ENCODING 106
SWIDTH 333 0
DWIDTH 4 0
BBX 7 12 -3 -3
BITMAP
06
06
00
1C
0C
1C
18
18
18
30
B0
E0
ENDCHAR
STARTCHAR k
ENCODING 107
SWIDTH 570 0
DWIDTH 7 0
BBX 7 10 0 0
BITMAP
70
30
70
60
64
6C
F0
F8
DE
CC
ENDCHAR
STARTCHAR l
ENCODING 108
SWIDTH 327 0
DWIDTH 4 0
BBX 4 10 0 0
BITMAP
70
30
70
60
60
60
E0
C0
D0
E0
ENDCHAR
STARTCHAR m
ENCODING 109
SWIDTH 914 0
DWIDTH 12 0
BBX 12 6 0 0
BITMAP
ECC0
7760
6660
EEE0
CCD0
CCE0
ENDCHAR
STARTCHAR n
ENCODING 110
SWIDTH 635 0
DWIDTH 8 0
BBX 8 6 0 0
BITMAP
EC
76
66
EE
CD
CE
ENDCHAR
STARTCHAR o
ENCODING 111
SWIDTH 562 0
DWIDTH 7 0
BBX 6 6 0 0
BITMAP
38
6C
EC
DC
D8
70
ENDCHAR
STARTCHAR p
ENCODING 112
SWIDTH 606 0
DWIDTH 8 0
BBX 8 9 -1 -3
BITMAP
76
3B
73
67
76
6C
E0
C0
C0
ENDCHAR
STARTCHAR q
ENCODING 113
SWIDTH 584 0
DWIDTH 7 0
BBX 7 10 0 -3
BITMAP
02
3E
66
EE
CC
DC
EC
18
18
18
ENDCHAR
STARTCHAR r
ENCODING 114
SWIDTH 440 0
DWIDTH 6 0
BBX 6 6 0 0
BITMAP
EC
7C
60
E0
C0
C0
ENDCHAR
STARTCHAR s
ENCODING 115
SWIDTH 417 0
DWIDTH 5 0
BBX 6 6 -1 0
BITMAP
1C
34
30
18
D8
70
ENDCHAR
STARTCHAR t
ENCODING 116
SWIDTH 359 0
DWIDTH 5 0
BBX 4 8 0 0
BITMAP
20
60
F0
60
E0
C0
D0
E0
ENDCHAR
STARTCHAR u
ENCODING 117
SWIDTH 634 0
DWIDTH 8 0
BBX 8 6 0 0
BITMAP
E6
66
EE
CC
DD
6E
ENDCHAR
STARTCHAR v
ENCODING 118
SWIDTH 518 0
DWIDTH 7 0
BBX 6 6 0 0
BITMAP
EC
6C
EC
C8
D0
60
ENDCHAR
STARTCHAR w
ENCODING 119
SWIDTH 795 0
DWIDTH 10 0
BBX 10 6 0 0
BITMAP
E6C0
66C0
ECC0
CC80
DD00
6600
ENDCHAR
STARTCHAR x
ENCODING 120
SWIDTH 516 0
DWIDTH 6 0
BBX 6 6 0 0
BITMAP
64
BC
30
30
F4
98
ENDCHAR
STARTCHAR y
ENCODING 121
SWIDTH 489 0
DWIDTH 6 0
BBX 7 9 -1 -3
BITMAP
76
36
34
38
38
30
30
A0
C0
ENDCHAR
STARTCHAR z
ENCODING 122
SWIDTH 466 0
DWIDTH 6 0
BBX 5 6 0 0
BITMAP
78
F0
20
40
F8
B0
ENDCHAR
STARTCHAR braceleft
ENCODING 123
SWIDTH 340 0
DWIDTH 4 0
BBX 5 11 0 -2
BITMAP
18
30
30
30
60
C0
60
60
C0
C0
60
ENDCHAR
STARTCHAR bar
ENCODING 124
SWIDTH 265 0
DWIDTH 3 0
BBX 2 9 0 0
BITMAP
C0
C0
C0
C0
C0
C0
C0
C0
C0
ENDCHAR
STARTCHAR braceright
ENCODING 125
SWIDTH 340 0
DWIDTH 4 0
BBX 5 11 -1 -2
BITMAP
30
18
18
30
30
18
30
60
60
60
C0
ENDCHAR
STARTCHAR asciitilde
ENCODING 126
SWIDTH 600 0
DWIDTH 7 0
BBX 6 2 0 3
BITMAP
74
B8
ENDCHAR
STARTCHAR space
ENCODING 160
SWIDTH 210 0
DWIDTH 3 0
BBX 0 0 0 0
BITMAP
ENDCHAR
STARTCHAR exclamdown
ENCODING 161
SWIDTH 285 0
DWIDTH 4 0
BBX 4 9 0 -3
BITMAP
30
30
00
20
60
60
E0
C0
C0
ENDCHAR
STARTCHAR cent
ENCODING 162
SWIDTH 560 0
DWIDTH 7 0
BBX 7 8 0 0
BITMAP
08
3C
6E
D0
D0
D4
78
20
ENDCHAR
STARTCHAR sterling
ENCODING 163
SWIDTH 560 0
DWIDTH 7 0
BBX 7 9 0 0
BITMAP
3C
66
60
70
30
FC
30
64
FC
ENDCHAR
STARTCHAR currency
ENCODING 164
SWIDTH 560 0
DWIDTH 7 0
BBX 6 8 0 0
BITMAP
84
78
CC
84
84
CC
78
84
ENDCHAR
STARTCHAR yen
ENCODING 165
SWIDTH 560 0
DWIDTH 7 0
BBX 7 9 0 0
BITMAP
F6
64
64
38
FE
30
FC
30
78
ENDCHAR
STARTCHAR brokenbar
ENCODING 166
SWIDTH 265 0
DWIDTH 3 0
BBX 2 9 0 0
BITMAP
C0
C0
C0
C0
00
C0
C0
C0
C0
ENDCHAR
STARTCHAR section
ENCODING 167
SWIDTH 568 0
DWIDTH 7 0
BBX 6 11 0 -2
BITMAP
1C
24
60
B0
98
CC
64
34
18
90
E0
ENDCHAR
STARTCHAR dieresis
ENCODING 168
SWIDTH 400 0
DWIDTH 5 0
BBX 3 2 1 7
BITMAP
A0
A0
ENDCHAR
STARTCHAR copyright
ENCODING 169
SWIDTH 824 0
DWIDTH 10 0
BBX 9 9 0 0
BITMAP
3E00
6300
DD80
B680
A080
B680
DD80
6300
3E00
ENDCHAR
STARTCHAR ordfeminine
ENCODING 170
SWIDTH 444 0
DWIDTH 6 0
BBX 5 4 1 4
BITMAP
38
58
B0
D8
ENDCHAR
STARTCHAR guillemotleft
ENCODING 171
SWIDTH 560 0
DWIDTH 7 0
BBX 7 6 0 0
BITMAP
12
36
6C
D8
48
24
ENDCHAR
STARTCHAR logicalnot
ENCODING 172
SWIDTH 600 0
DWIDTH 7 0
BBX 6 4 0 1
BITMAP
FC
0C
0C
0C
ENDCHAR
STARTCHAR hyphen
ENCODING 173
SWIDTH 392 0
DWIDTH 5 0
BBX 3 1 1 3
BITMAP
E0
ENDCHAR
STARTCHAR registered
ENCODING 174
SWIDTH 824 0
DWIDTH 10 0
BBX 9 9 0 0
BITMAP
3E00
6300
DD80
9480
9C80
9480
D580
6300
3E00
ENDCHAR
STARTCHAR macron
ENCODING 175
SWIDTH 400 0
DWIDTH 5 0
BBX 4 1 0 7
BITMAP
F0
ENDCHAR
STARTCHAR degree
ENCODING 176
SWIDTH 375 0
DWIDTH 6 0
BBX 4 4 1 5
BITMAP
60
90
90
60
ENDCHAR
STARTCHAR plusminus
ENCODING 177
SWIDTH 600 0
DWIDTH 7 0
BBX 6 7 0 0
BITMAP
30
30
FC
30
30
00
FC
ENDCHAR
STARTCHAR twosuperior
ENCODING 178
SWIDTH 402 0
DWIDTH 5 0
BBX 5 6 0 3
BITMAP
70
58
30
60
D0
F0
ENDCHAR
STARTCHAR threesuperior
ENCODING 179
SWIDTH 402 0
DWIDTH 5 0
BBX 5 6 0 3
BITMAP
70
18
60
30
B0
E0
ENDCHAR
STARTCHAR acute
ENCODING 180
SWIDTH 400 0
DWIDTH 5 0
BBX 3 2 1 7
BITMAP
60
C0
ENDCHAR
STARTCHAR mu
ENCODING 181
SWIDTH 634 0
DWIDTH 8 0
BBX 9 9 -1 -3
BITMAP
7300
3300
7700
6600
6E80
7700
C000
C000
C000
ENDCHAR
STARTCHAR paragraph
ENCODING 182
SWIDTH 580 0
DWIDTH 7 0
BBX 7 11 0 -2
BITMAP
36
74
F4
EC
E8
68
08
18
10
10
30
ENDCHAR
STARTCHAR periodcentered
ENCODING 183
SWIDTH 280 0
DWIDTH 4 0
BBX 2 2 0 3
BITMAP
C0
C0
ENDCHAR
STARTCHAR cedilla
ENCODING 184
SWIDTH 400 0
DWIDTH 4 0
BBX 3 3 0 -3
BITMAP
40
60
C0
ENDCHAR
STARTCHAR onesuperior
ENCODING 185
SWIDTH 402 0
DWIDTH 5 0
BBX 4 6 0 3
BITMAP
70
30
30
60
60
F0
ENDCHAR
STARTCHAR ordmasculine
ENCODING 186
SWIDTH 412 0
DWIDTH 5 0
BBX 5 4 0 4
BITMAP
70
C8
98
70
ENDCHAR
STARTCHAR guillemotright
ENCODING 187
SWIDTH 560 0
DWIDTH 7 0
BBX 7 6 0 0
BITMAP
48
24
36
6C
D8
90
ENDCHAR
STARTCHAR onequarter
ENCODING 188
SWIDTH 940 0
DWIDTH 11 0
BBX 11 9 0 0
BITMAP
3100
7300
3200
6400
6CC0
E9C0
12C0
37E0
2180
ENDCHAR
STARTCHAR onehalf
ENCODING 189
SWIDTH 940 0
DWIDTH 11 0
BBX 11 9 0 0
BITMAP
3100
7300
3200
65C0
6D60
E8C0
1180
3340
23C0
ENDCHAR
STARTCHAR threequarters
ENCODING 190
SWIDTH 940 0
DWIDTH 11 0
BBX 11 9 0 0
BITMAP
7100
1B00
6200
3400
BCC0
E9C0
12C0
37E0
2180
ENDCHAR
STARTCHAR questiondown
ENCODING 191
SWIDTH 454 0
DWIDTH 6 0
BBX 5 9 0 -3
BITMAP
18
18
00
38
18
70
C0
D8
70
ENDCHAR
STARTCHAR Agrave
ENCODING 192
SWIDTH 634 0
DWIDTH 8 0
BBX 9 10 -1 0
BITMAP
0C00
0600
0000
0600
0E00
1600
1300
3F00
4300
E780
ENDCHAR
STARTCHAR Aacute
ENCODING 193
SWIDTH 634 0
DWIDTH 8 0
BBX 9 10 -1 0
BITMAP
0300
0600
0000
0600
0E00
1600
1300
3F00
4300
E780
ENDCHAR
STARTCHAR Acircumflex
ENCODING 194
SWIDTH 634 0
DWIDTH 8 0
BBX 9 10 -1 0
BITMAP
0600
0B00
0000
0600
0E00
1600
1300
3F00
4300
E780
ENDCHAR
STARTCHAR Atilde
ENCODING 195
SWIDTH 634 0
DWIDTH 8 0
BBX 9 10 -1 0
BITMAP
0680
0B00
0000
0600
0E00
1600
1300
3F00
4300
E780
ENDCHAR
STARTCHAR Adieresis
ENCODING 196
SWIDTH 634 0
DWIDTH 8 0
BBX 9 10 -1 0
BITMAP
0500
0500
0000
0600
0E00
1600
1300
3F00
4300
E780
ENDCHAR
STARTCHAR Aring
ENCODING 197
SWIDTH 634 0
DWIDTH 8 0
BBX 9 10 -1 0
BITMAP
0600
0900
0600
0600
0E00
1600
1300
3F00
4300
E780
ENDCHAR
STARTCHAR AE
ENCODING 198
SWIDTH 890 0
DWIDTH 11 0
BBX 12 9 -1 0
BITMAP
1FF0
0B30
0B10
1340
1FC0
2640
2620
4660
EFE0
ENDCHAR
STARTCHAR Ccedilla
ENCODING 199
SWIDTH 672 0
DWIDTH 8 0
BBX 8 12 0 -3
BITMAP
1F
73
61
E0
E0
C0
C2
C6
7C
10
18
30
ENDCHAR
STARTCHAR Egrave
ENCODING 200
SWIDTH 622 0
DWIDTH 8 0
BBX 8 10 0 0
BITMAP
18
0C
00
7F
31
30
7C
60
62
FE
ENDCHAR
STARTCHAR Eacute
ENCODING 201
SWIDTH 622 0
DWIDTH 8 0
BBX 8 10 0 0
BITMAP
06
0C
00
7F
31
30
7C
60
62
FE
ENDCHAR
STARTCHAR Ecircumflex
ENCODING 202
SWIDTH 622 0
DWIDTH 8 0
BBX 8 10 0 0
BITMAP
0C
16
00
7F
31
30
7C
60
62
FE
ENDCHAR
STARTCHAR Edieresis
ENCODING 203
SWIDTH 622 0
DWIDTH 8 0
BBX 8 10 0 0
BITMAP
14
14
00
7F
31
30
7C
60
62
FE
ENDCHAR
STARTCHAR Igrave
ENCODING 204
SWIDTH 386 0
DWIDTH 5 0
BBX 5 10 0 0
BITMAP
60
30
00
78
30
30
70
60
60
F0
ENDCHAR
STARTCHAR Iacute
ENCODING 205
SWIDTH 386 0
DWIDTH 5 0
BBX 5 10 0 0
BITMAP
18
30
00
78
30
30
70
60
60
F0
ENDCHAR
STARTCHAR Icircumflex
ENCODING 206
SWIDTH 386 0
DWIDTH 5 0
BBX 5 10 0 0
BITMAP
30
58
00
78
30
30
70
60
60
F0
ENDCHAR
STARTCHAR Idieresis
ENCODING 207
SWIDTH 386 0
DWIDTH 5 0
BBX 5 10 0 0
BITMAP
28
28
00
78
30
30
70
60
60
F0
ENDCHAR
STARTCHAR Eth
ENCODING 208
SWIDTH 780 0
DWIDTH 10 0
BBX 9 9 0 0
BITMAP
7F00
3180
3180
3180
FB80
6380
6300
6700
FC00
ENDCHAR
STARTCHAR Ntilde
ENCODING 209
SWIDTH 741 0
DWIDTH 10 0
BBX 10 10 0 0
BITMAP
0680
0B00
0000
71C0
3880
3880
6D80
4700
4700
E300
ENDCHAR
STARTCHAR Ograve
ENCODING 210
SWIDTH 761 0
DWIDTH 10 0
BBX 8 10 1 0
BITMAP
18
0C
00
3E
63
E3
C3
C7
C6
7C
ENDCHAR
STARTCHAR Oacute
ENCODING 211
SWIDTH 761 0
DWIDTH 10 0
BBX 8 10 1 0
BITMAP
06
0C
00
3E
63
E3
C3
C7
C6
7C
ENDCHAR
STARTCHAR Ocircumflex
ENCODING 212
SWIDTH 761 0
DWIDTH 10 0
BBX 8 10 1 0
BITMAP
0C
16
00
3E
63
E3
C3
C7
C6
7C
ENDCHAR
STARTCHAR Otilde
ENCODING 213
SWIDTH 761 0
DWIDTH 10 0
BBX 8 10 1 0
BITMAP
0D
16
00
3E
63
E3
C3
C7
C6
7C
ENDCHAR
STARTCHAR Odieresis
ENCODING 214
SWIDTH 761 0
DWIDTH 10 0
BBX 8 10 1 0
BITMAP
14
14
00
3E
63
E3
C3
C7
C6
7C
ENDCHAR
STARTCHAR multiply
ENCODING 215
SWIDTH 600 0
DWIDTH 7 0
BBX 6 5 0 1
BITMAP
CC
78
30
78
CC
ENDCHAR
STARTCHAR Oslash
ENCODING 216
SWIDTH 761 0
DWIDTH 10 0
BBX 10 9 0 0
BITMAP
0F40
3980
3380
7580
7B80
6B80
7300
6700
BC00
ENDCHAR
STARTCHAR Ugrave
ENCODING 217
SWIDTH 776 0
DWIDTH 10 0
BBX 9 10 1 0
BITMAP
1800
0C00
0000
F780
6300
6300
C600
C600
CE00
7C00
ENDCHAR
STARTCHAR Uacute
ENCODING 218
SWIDTH 776 0
DWIDTH 10 0
BBX 9 10 1 0
BITMAP
0600
0C00
0000
F780
6300
6300
C600
C600
CE00
7C00
ENDCHAR
STARTCHAR Ucircumflex
ENCODING 219
SWIDTH 776 0
DWIDTH 10 0
BBX 9 10 1 0
BITMAP
0C00
1600
0000
F780
6300
6300
C600
C600
CE00
7C00
ENDCHAR
STARTCHAR Udieresis
ENCODING 220
SWIDTH 776 0
DWIDTH 10 0
BBX 9 10 1 0
BITMAP
0A00
0A00
0000
F780
6300
6300
C600
C600
CE00
7C00
ENDCHAR
STARTCHAR Yacute
ENCODING 221
SWIDTH 622 0
DWIDTH 8 0
BBX 8 10 1 0
BITMAP
0C
18
00
F7
62
64
68
30
60
F0
ENDCHAR
STARTCHAR Thorn
ENCODING 222
SWIDTH 629 0
DWIDTH 8 0
BBX 8 9 0 0
BITMAP
78
30
3E
33
33
66
7C
60
F0
ENDCHAR
STARTCHAR germandbls
ENCODING 223
SWIDTH 628 0
DWIDTH 8 0
BBX 10 13 -2 -3
BITMAP
0780
0CC0
0CC0
0CC0
3D80
1B80
19C0
18C0
3AC0
3380
3000
B000
E000
ENDCHAR
STARTCHAR agrave
ENCODING 224
SWIDTH 596 0
DWIDTH 7 0
BBX 7 9 0 0
BITMAP
18
0C
00
3C
6C
CC
D8
DA
6C
ENDCHAR
STARTCHAR aacute
ENCODING 225
SWIDTH 596 0
DWIDTH 7 0
BBX 7 9 0 0
BITMAP
06
0C
00
3C
6C
CC
D8
DA
6C
ENDCHAR
STARTCHAR acircumflex
ENCODING 226
SWIDTH 596 0
DWIDTH 7 0
BBX 7 9 0 0
BITMAP
0C
16
00
3C
6C
CC
D8
DA
6C
ENDCHAR
STARTCHAR atilde
ENCODING 227
SWIDTH 596 0
DWIDTH 7 0
BBX 7 9 0 0
BITMAP
1A
2C
00
3C
6C
CC
D8
DA
6C
ENDCHAR
STARTCHAR adieresis
ENCODING 228
SWIDTH 596 0
DWIDTH 7 0
BBX 7 9 0 0
BITMAP
14
14
00
3C
6C
CC
D8
DA
6C
ENDCHAR
STARTCHAR aring
ENCODING 229
SWIDTH 596 0
DWIDTH 7 0
BBX 7 10 0 0
BITMAP
0C
12
0C
00
3C
6C
CC
D8
DA
6C
ENDCHAR
STARTCHAR ae
ENCODING 230
SWIDTH 789 0
DWIDTH 10 0
BBX 10 7 0 0
BITMAP
0200
3F80
66C0
EF80
CC00
DC80
6700
ENDCHAR
STARTCHAR ccedilla
ENCODING 231
SWIDTH 456 0
DWIDTH 6 0
BBX 6 9 0 -3
BITMAP
38
6C
E0
C0
C8
70
20
30
60
ENDCHAR
STARTCHAR egrave
ENCODING 232
SWIDTH 476 0
DWIDTH 6 0
BBX 6 9 0 0
BITMAP
30
18
00
38
6C
F8
C0
C8
70
ENDCHAR
STARTCHAR eacute
ENCODING 233
SWIDTH 476 0
DWIDTH 6 0
BBX 6 9 0 0
BITMAP
0C
18
00
38
6C
F8
C0
C8
70
ENDCHAR
STARTCHAR ecircumflex
ENCODING 234
SWIDTH 476 0
DWIDTH 6 0
BBX 6 9 0 0
BITMAP
18
2C
00
38
6C
F8
C0
C8
70
ENDCHAR
STARTCHAR edieresis
ENCODING 235
SWIDTH 476 0
DWIDTH 6 0
BBX 6 9 0 0
BITMAP
28
28
00
38
6C
F8
C0
C8
70
ENDCHAR
STARTCHAR igrave
ENCODING 236
SWIDTH 339 0
DWIDTH 4 0
BBX 4 9 0 0
BITMAP
60
30
00
E0
60
E0
C0
D0
E0
ENDCHAR
STARTCHAR iacute
ENCODING 237
SWIDTH 339 0
DWIDTH 4 0
BBX 4 9 0 0
BITMAP
30
60
00
E0
60
E0
C0
D0
E0
ENDCHAR
STARTCHAR icircumflex
ENCODING 238
SWIDTH 339 0
DWIDTH 4 0
BBX 4 9 0 0
BITMAP
60
B0
00
E0
60
E0
C0
D0
E0
ENDCHAR
STARTCHAR idieresis
ENCODING 239
SWIDTH 339 0
DWIDTH 4 0
BBX 4 9 0 0
BITMAP
50
50
00
E0
60
E0
C0
D0
E0
ENDCHAR
STARTCHAR eth
ENCODING 240
SWIDTH 562 0
DWIDTH 7 0
BBX 6 10 0 0
BITMAP
68
30
58
18
3C
6C
EC
DC
D8
70
ENDCHAR
STARTCHAR ntilde
ENCODING 241
SWIDTH 635 0
DWIDTH 8 0
BBX 8 9 0 0
BITMAP
1A
2C
00
EC
76
66
EE
CD
CE
ENDCHAR
STARTCHAR ograve
ENCODING 242
SWIDTH 562 0
DWIDTH 7 0
BBX 6 9 0 0
BITMAP
30
18
00
38
6C
EC
DC
D8
70
ENDCHAR
STARTCHAR oacute
ENCODING 243
SWIDTH 562 0
DWIDTH 7 0
BBX 6 9 0 0
BITMAP
0C
18
00
38
6C
EC
DC
D8
70
ENDCHAR
STARTCHAR ocircumflex
ENCODING 244
SWIDTH 562 0
DWIDTH 7 0
BBX 6 9 0 0
BITMAP
18
2C
00
38
6C
EC
DC
D8
70
ENDCHAR
STARTCHAR otilde
ENCODING 245
SWIDTH 562 0
DWIDTH 7 0
BBX 6 9 0 0
BITMAP
34
58
00
38
6C
EC
DC
D8
70
ENDCHAR
STARTCHAR odieresis
ENCODING 246
SWIDTH 562 0
DWIDTH 7 0
BBX 6 9 0 0
BITMAP
28
28
00
38
6C
EC
DC
D8
70
ENDCHAR
STARTCHAR divide
ENCODING 247
SWIDTH 600 0
DWIDTH 7 0
BBX 6 5 0 1
BITMAP
30
00
FC
00
30
ENDCHAR
STARTCHAR oslash
ENCODING 248
SWIDTH 562 0
DWIDTH 7 0
BBX 6 8 0 -1
BITMAP
04
38
6C
EC
DC
D8
70
80
ENDCHAR
STARTCHAR ugrave
ENCODING 249
SWIDTH 634 0
DWIDTH 8 0
BBX 8 9 0 0
BITMAP
30
18
00
E6
66
EE
CC
DD
6E
ENDCHAR
STARTCHAR uacute
ENCODING 250
SWIDTH 634 0
DWIDTH 8 0
BBX 8 9 0 0
BITMAP
0C
18
00
E6
66
EE
CC
DD
6E
ENDCHAR
STARTCHAR ucircumflex
ENCODING 251
SWIDTH 634 0
DWIDTH 8 0
BBX 8 9 0 0
BITMAP
18
2C
00
E6
66
EE
CC
DD
6E
ENDCHAR
STARTCHAR udieresis
ENCODING 252
SWIDTH 634 0
DWIDTH 8 0
BBX 8 9 0 0
BITMAP
14
14
00
E6
66
EE
CC
DD
6E
ENDCHAR
STARTCHAR yacute
ENCODING 253
SWIDTH 489 0
DWIDTH 6 0
BBX 7 12 -1 -3
BITMAP
06
0C
00
76
36
34
38
38
30
30
A0
C0
ENDCHAR
STARTCHAR thorn
ENCODING 254
SWIDTH 600 0
DWIDTH 8 0
BBX 8 13 -1 -3
BITMAP
38
18
38
30
36
3B
73
67
76
6C
E0
C0
C0
ENDCHAR
STARTCHAR ydieresis
ENCODING 255
SWIDTH 489 0
DWIDTH 6 0
BBX 7 12 -1 -3
BITMAP
14
14
00
76
36
34
38
38
30
30
A0
C0
ENDCHAR
STARTCHAR Amacron
ENCODING 256
SWIDTH 634 0
DWIDTH 8 0
BBX 9 11 -1 0
BITMAP
1E00
0000
0600
0E00
0E00
1600
1300
3F00
2300
4300
E780
ENDCHAR
STARTCHAR amacron
ENCODING 257
SWIDTH 596 0
DWIDTH 7 0
BBX 7 8 0 0
BITMAP
3C
00
3C
6C
CC
D8
DA
6C
ENDCHAR
STARTCHAR Abreve
ENCODING 258
SWIDTH 634 0
DWIDTH 8 0
BBX 9 12 -1 0
BITMAP
1200
0C00
0000
0600
0E00
0E00
1600
1300
3F00
2300
4300
E780
ENDCHAR
STARTCHAR abreve
ENCODING 259
SWIDTH 596 0
DWIDTH 7 0
BBX 7 9 0 0
BITMAP
24
18
00
3C
6C
CC
D8
DA
6C
ENDCHAR
STARTCHAR Aogonek
ENCODING 260
SWIDTH 634 0
DWIDTH 8 0
BBX 9 12 -1 -3
BITMAP
0600
0E00
0E00
1600
1300
3F00
2300
4300
E780
0800
1000
1800
ENDCHAR
STARTCHAR aogonek
ENCODING 261
SWIDTH 596 0
DWIDTH 7 0
BBX 7 9 0 -3
BITMAP
3C
6C
CC
D8
DA
6C
10
20
30
ENDCHAR
STARTCHAR Cacute
ENCODING 262
SWIDTH 672 0
DWIDTH 8 0
BBX 8 12 0 0
BITMAP
0C
18
00
1F
73
61
E0
E0
C0
C2
C6
7C
ENDCHAR
STARTCHAR cacute
ENCODING 263
SWIDTH 456 0
DWIDTH 6 0
BBX 6 9 0 0
BITMAP
18
30
00
38
6C
E0
C0
C8
70
ENDCHAR
STARTCHAR Ccircumflex
ENCODING 264
SWIDTH 672 0
DWIDTH 8 0
BBX 8 12 0 0
BITMAP
18
2C
00
1F
73
61
E0
E0
C0
C2
C6
7C
ENDCHAR
STARTCHAR ccircumflex
ENCODING 265
SWIDTH 456 0
DWIDTH 6 0
BBX 6 9 0 0
BITMAP
30
58
00
38
6C
E0
C0
C8
70
ENDCHAR
STARTCHAR Cdotaccent
ENCODING 266
SWIDTH 672 0
DWIDTH 8 0
BBX 8 12 0 0
BITMAP
08
08
00
1F
73
61
E0
E0
C0
C2
C6
7C
ENDCHAR
STARTCHAR cdotaccent
ENCODING 267
SWIDTH 456 0
DWIDTH 6 0
BBX 6 9 0 0
BITMAP
10
10
00
38
6C
E0
C0
C8
70
ENDCHAR
STARTCHAR Ccaron
ENCODING 268
SWIDTH 672 0
DWIDTH 8 0
BBX 8 12 0 0
BITMAP
34
18
00
1F
73
61
E0
E0
C0
C2
C6
7C
ENDCHAR
STARTCHAR ccaron
ENCODING 269
SWIDTH 456 0
DWIDTH 6 0
BBX 6 9 0 0
BITMAP
68
30
00
38
6C
E0
C0
C8
70
ENDCHAR
STARTCHAR Dcaron
ENCODING 270
SWIDTH 774 0
DWIDTH 10 0
BBX 9 12 0 0
BITMAP
1A00
0C00
0000
7F00
3180
3180
3180
7380
6380
6300
6700
FC00
ENDCHAR
STARTCHAR dcaron
ENCODING 271
SWIDTH 825 0
DWIDTH 11 0
BBX 11 10 0 0
BITMAP
0700
0360
0760
0640
3E80
6600
EE00
CC00
DD00
6E00
ENDCHAR
STARTCHAR Dcroat
ENCODING 272
SWIDTH 780 0
DWIDTH 10 0
BBX 9 9 0 0
BITMAP
7F00
3180
3180
3180
FB80
6380
6300
6700
FC00
ENDCHAR
STARTCHAR dcroat
ENCODING 273
SWIDTH 609 0
DWIDTH 8 0
BBX 8 10 0 0
BITMAP
07
03
1F
06
3E
66
EE
CC
DD
6E
ENDCHAR
STARTCHAR Emacron
ENCODING 274
SWIDTH 622 0
DWIDTH 8 0
BBX 8 11 0 0
BITMAP
3C
00
7F
33
31
34
7C
64
62
66
FE
ENDCHAR
STARTCHAR emacron
ENCODING 275
SWIDTH 476 0
DWIDTH 6 0
BBX 6 8 0 0
BITMAP
78
00
38
6C
F8
C0
C8
70
ENDCHAR
STARTCHAR Ebreve
ENCODING 276
SWIDTH 622 0
DWIDTH 8 0
BBX 8 12 0 0
BITMAP
24
18
00
7F
33
31
34
7C
64
62
66
FE
ENDCHAR
STARTCHAR ebreve
ENCODING 277
SWIDTH 476 0
DWIDTH 6 0
BBX 6 9 0 0
BITMAP
48
30
00
38
6C
F8
C0
C8
70
ENDCHAR
STARTCHAR Edotaccent
ENCODING 278
SWIDTH 622 0
DWIDTH 8 0
BBX 8 12 0 0
BITMAP
08
08
00
7F
33
31
34
7C
64
62
66
FE
ENDCHAR
STARTCHAR edotaccent
ENCODING 279
SWIDTH 476 0
DWIDTH 6 0
BBX 6 9 0 0
BITMAP
10
10
00
38
6C
F8
C0
C8
70
ENDCHAR
STARTCHAR Eogonek
ENCODING 280
SWIDTH 622 0
DWIDTH 8 0
BBX 8 12 0 -3
BITMAP
7F
33
31
34
7C
64
62
66
FE
10
20
30
ENDCHAR
STARTCHAR eogonek
ENCODING 281
SWIDTH 476 0
DWIDTH 6 0
BBX 6 9 0 -3
BITMAP
38
6C
F8
C0
C8
70
20
40
60
ENDCHAR
STARTCHAR Ecaron
ENCODING 282
SWIDTH 622 0
DWIDTH 8 0
BBX 8 12 0 0
BITMAP
34
18
00
7F
33
31
34
7C
64
62
66
FE
ENDCHAR
STARTCHAR ecaron
ENCODING 283
SWIDTH 476 0
DWIDTH 6 0
BBX 6 9 0 0
BITMAP
68
30
00
38
6C
F8
C0
C8
70
ENDCHAR
STARTCHAR Gcircumflex
ENCODING 284
SWIDTH 726 0
DWIDTH 9 0
BBX 8 12 1 0
BITMAP
18
2C
00
1F
73
61
E0
E0
CF
C6
C6
7C
ENDCHAR
STARTCHAR gcircumflex
ENCODING 285
SWIDTH 522 0
DWIDTH 7 0
BBX 8 12 -1 -3
BITMAP
18
2C
00
1F
36
36
3C
18
3C
6E
C6
7C
ENDCHAR
STARTCHAR Gbreve
ENCODING 286
SWIDTH 726 0
DWIDTH 9 0
BBX 8 12 1 0
BITMAP
24
18
00
1F
73
61
E0
E0
CF
C6
C6
7C
ENDCHAR
STARTCHAR gbreve
ENCODING 287
SWIDTH 522 0
DWIDTH 7 0
BBX 8 12 -1 -3
BITMAP
12
0C
00
1F
36
36
3C
18
3C
6E
C6
7C
ENDCHAR
STARTCHAR Gdotaccent
ENCODING 288
SWIDTH 726 0
DWIDTH 9 0
BBX 8 12 1 0
BITMAP
08
08
00
1F
73
61
E0
E0
CF
C6
C6
7C
ENDCHAR
STARTCHAR gdotaccent
ENCODING 289
SWIDTH 522 0
DWIDTH 7 0
BBX 8 12 -1 -3
BITMAP
08
08
00
1F
36
36
3C
18
3C
6E
C6
7C
ENDCHAR
STARTCHAR Gcommaaccent
ENCODING 290
SWIDTH 726 0
DWIDTH 9 0
BBX 8 14 1 -5
BITMAP
1F
73
61
E0
E0
CF
C6
C6
7C
00
18
18
10
20
ENDCHAR
STARTCHAR gcommaaccent
ENCODING 291
SWIDTH 522 0
DWIDTH 7 0
BBX 8 14 -1 -3
BITMAP
04
08
18
18
00
1F
36
36
3C
18
3C
6E
C6
7C
ENDCHAR
STARTCHAR Hcircumflex
ENCODING 292
SWIDTH 800 0
DWIDTH 10 0
BBX 10 12 0 0
BITMAP
0C00
1600
0000
7BC0
3180
3180
3180
7F80
6300
6300
6300
F780
ENDCHAR
STARTCHAR hcircumflex
ENCODING 293
SWIDTH 629 0
DWIDTH 8 0
BBX 8 13 0 0
BITMAP
30
58
00
70
30
30
70
6C
76
66
EE
CD
CE
ENDCHAR
STARTCHAR Hbar
ENCODING 294
SWIDTH 800 0
DWIDTH 10 0
BBX 10 9 0 0
BITMAP
7BC0
3180
FFC0
3180
7F80
6300
6300
6300
F780
ENDCHAR
STARTCHAR hbar
ENCODING 295
SWIDTH 629 0
DWIDTH 8 0
BBX 8 10 0 0
BITMAP
70
30
F8
70
6C
76
66
EE
CD
CE
ENDCHAR
STARTCHAR Itilde
ENCODING 296
SWIDTH 386 0
DWIDTH 5 0
BBX 6 12 0 0
BITMAP
34
58
00
78
30
30
30
70
60
60
60
F0
ENDCHAR
STARTCHAR itilde
ENCODING 297
SWIDTH 339 0
DWIDTH 4 0
BBX 5 9 0 0
BITMAP
68
B0
00
E0
60
E0
C0
D0
E0
ENDCHAR
STARTCHAR Imacron
ENCODING 298
SWIDTH 386 0
DWIDTH 5 0
BBX 5 11 0 0
BITMAP
78
00
78
30
30
30
70
60
60
60
F0
ENDCHAR
STARTCHAR imacron
ENCODING 299
SWIDTH 339 0
DWIDTH 4 0
BBX 4 8 0 0
BITMAP
F0
00
E0
60
E0
C0
D0
E0
ENDCHAR
STARTCHAR Ibreve
ENCODING 300
SWIDTH 386 0
DWIDTH 5 0
BBX 5 12 0 0
BITMAP
48
30
00
78
30
30
30
70
60
60
60
F0
ENDCHAR
STARTCHAR ibreve
ENCODING 301
SWIDTH 339 0
DWIDTH 4 0
BBX 4 9 0 0
BITMAP
90
60
00
E0
60
E0
C0
D0
E0
ENDCHAR
STARTCHAR Iogonek
ENCODING 302
SWIDTH 386 0
DWIDTH 5 0
BBX 5 12 0 -3
BITMAP
78
30
30
30
70
60
60
60
F0
20
40
60
ENDCHAR
STARTCHAR iogonek
ENCODING 303
SWIDTH 339 0
DWIDTH 4 0
BBX 4 12 0 -3
BITMAP
30
30
00
E0
60
60
E0
D0
E0
40
80
C0
ENDCHAR
STARTCHAR Idotaccent
ENCODING 304
SWIDTH 386 0
DWIDTH 5 0
BBX 5 12 0 0
BITMAP
20
20
00
78
30
30
30
70
60
60
60
F0
ENDCHAR
STARTCHAR dotlessi
ENCODING 305
SWIDTH 339 0
DWIDTH 4 0
BBX 4 6 0 0
BITMAP
E0
60
E0
C0
D0
E0
ENDCHAR
STARTCHAR IJ
ENCODING 306
SWIDTH 755 0
DWIDTH 10 0
BBX 10 11 0 -2
BITMAP
7BC0
3180
3180
3180
7380
6300
6300
6300
F300
0600
0C00
ENDCHAR
STARTCHAR ij
ENCODING 307
SWIDTH 655 0
DWIDTH 8 0
BBX 8 12 0 -3
BITMAP
33
33
00
EE
66
6E
EC
DC
EC
18
58
70
ENDCHAR
STARTCHAR Jcircumflex
ENCODING 308
SWIDTH 388 0
DWIDTH 5 0
BBX 6 14 -1 -2
BITMAP
18
2C
00
3C
18
18
18
38
30
30
30
30
60
C0
ENDCHAR
STARTCHAR jcircumflex
ENCODING 309
SWIDTH 333 0
DWIDTH 4 0
BBX 7 12 -3 -3
BITMAP
18
2C
00
1C
0C
1C
18
18
18
30
B0
E0
ENDCHAR
STARTCHAR Kcommaaccent
ENCODING 310
SWIDTH 688 0
DWIDTH 9 0
BBX 9 14 0 -5
BITMAP
7B80
3300
3200
3400
7C00
6E00
6600
6700
F380
0000
0C00
0C00
0800
1000
ENDCHAR
STARTCHAR kcommaaccent
ENCODING 311
SWIDTH 570 0
DWIDTH 7 0
BBX 7 15 0 -5
BITMAP
70
30
70
60
64
6C
F0
F8
DE
CC
00
30
30
20
40
ENDCHAR
STARTCHAR kgreenlandic
ENCODING 312
SWIDTH 570 0
DWIDTH 7 0
BBX 7 6 0 0
BITMAP
64
6C
F0
F8
DE
CC
ENDCHAR
STARTCHAR Lacute
ENCODING 313
SWIDTH 586 0
DWIDTH 7 0
BBX 7 12 0 0
BITMAP
18
30
00
78
30
30
30
70
60
60
62
FE
ENDCHAR
STARTCHAR lacute
ENCODING 314
SWIDTH 327 0
DWIDTH 4 0
BBX 4 13 0 0
BITMAP
30
60
00
70
30
70
60
60
60
E0
C0
D0
E0
ENDCHAR
STARTCHAR Lcommaaccent
ENCODING 315
SWIDTH 586 0
DWIDTH 7 0
BBX 7 14 0 -5
BITMAP
78
30
30
30
70
60
60
62
FE
00
18
18
10
20
ENDCHAR
STARTCHAR lcommaaccent
ENCODING 316
SWIDTH 327 0
DWIDTH 4 0
BBX 4 15 0 -5
BITMAP
70
30
70
60
60
60
E0
C0
D0
E0
00
60
60
40
80
ENDCHAR
STARTCHAR Lcaron
ENCODING 317
SWIDTH 803 0
DWIDTH 10 0
BBX 10 9 0 0
BITMAP
78C0
30C0
3080
3100
7000
6000
6000
6200
FE00
ENDCHAR
STARTCHAR lcaron
ENCODING 318
SWIDTH 557 0
DWIDTH 7 0
BBX 7 10 0 0
BITMAP
70
36
76
64
68
60
E0
C0
D0
E0
ENDCHAR
STARTCHAR Ldot
ENCODING 319
SWIDTH 837 0
DWIDTH 11 0
BBX 9 9 0 0
BITMAP
7800
3000
3000
3000
7180
6180
6000
6200
FE00
ENDCHAR
STARTCHAR ldot
ENCODING 320
SWIDTH 591 0
DWIDTH 8 0
BBX 6 10 0 0
BITMAP
70
30
70
60
60
6C
EC
C0
D0
E0
ENDCHAR
STARTCHAR Lslash
ENCODING 321
SWIDTH 592 0
DWIDTH 7 0
BBX 7 9 0 0
BITMAP
78
30
30
30
F8
60
60
62
FE
ENDCHAR
STARTCHAR lslash
ENCODING 322
SWIDTH 339 0
DWIDTH 4 0
BBX 4 10 0 0
BITMAP
70
30
70
60
F0
60
E0
C0
D0
E0
ENDCHAR
STARTCHAR Nacute
ENCODING 323
SWIDTH 741 0
DWIDTH 9 0
BBX 10 12 -1 0
BITMAP
0600
0C00
0000
71C0
3880
3880
2C80
6D00
4700
4700
4300
E300
ENDCHAR
STARTCHAR nacute
ENCODING 324
SWIDTH 635 0
DWIDTH 8 0
BBX 8 9 0 0
BITMAP
18
30
00
EC
76
66
EE
CD
CE
ENDCHAR
STARTCHAR Ncommaaccent
ENCODING 325
SWIDTH 741 0
DWIDTH 9 0
BBX 10 14 -1 -5
BITMAP
71C0
3880
3880
2C80
6D00
4700
4700
4300
E300
0000
0C00
0C00
0800
1000
ENDCHAR
STARTCHAR ncommaaccent
ENCODING 326
SWIDTH 635 0
DWIDTH 8 0
BBX 8 11 0 -5
BITMAP
EC
76
66
EE
CD
CE
00
18
18
10
20
ENDCHAR
STARTCHAR Ncaron
ENCODING 327
SWIDTH 741 0
DWIDTH 9 0
BBX 10 12 -1 0
BITMAP
1A00
0C00
0000
71C0
3880
3880
2C80
6D00
4700
4700
4300
E300
ENDCHAR
STARTCHAR ncaron
ENCODING 328
SWIDTH 635 0
DWIDTH 8 0
BBX 8 9 0 0
BITMAP
34
18
00
EC
76
66
EE
CD
CE
ENDCHAR
STARTCHAR napostrophe
ENCODING 329
SWIDTH 869 0
DWIDTH 11 0
BBX 11 9 0 0
BITMAP
6000
6000
4000
9D80
0EC0
0CC0
1DC0
19A0
19C0
ENDCHAR
STARTCHAR Eng
ENCODING 330
SWIDTH 741 0
DWIDTH 9 0
BBX 10 12 -1 -3
BITMAP
71C0
3880
3880
2C80
6D00
4700
4700
4300
E300
0600
1600
1C00
ENDCHAR
STARTCHAR eng
ENCODING 331
SWIDTH 635 0
DWIDTH 8 0
BBX 7 9 0 -3
BITMAP
EC
76
66
EE
C6
C6
0C
2C
38
ENDCHAR
STARTCHAR Omacron
ENCODING 332
SWIDTH 761 0
DWIDTH 10 0
BBX 8 11 1 0
BITMAP
3C
00
1E
73
63
E3
E7
C7
C6
CE
78
ENDCHAR
STARTCHAR omacron
ENCODING 333
SWIDTH 562 0
DWIDTH 7 0
BBX 6 8 0 0
BITMAP
78
00
38
6C
EC
DC
D8
70
ENDCHAR
STARTCHAR Obreve
ENCODING 334
SWIDTH 761 0
DWIDTH 10 0
BBX 8 12 1 0
BITMAP
24
18
00
1E
73
63
E3
E7
C7
C6
CE
78
ENDCHAR
STARTCHAR obreve
ENCODING 335
SWIDTH 562 0
DWIDTH 7 0
BBX 6 9 0 0
BITMAP
48
30
00
38
6C
EC
DC
D8
70
ENDCHAR
STARTCHAR Ohungarumlaut
ENCODING 336
SWIDTH 761 0
DWIDTH 10 0
BBX 8 12 1 0
BITMAP
1B
36
00
1E
73
63
E3
E7
C7
C6
CE
78
ENDCHAR
STARTCHAR ohungarumlaut
ENCODING 337
SWIDTH 562 0
DWIDTH 7 0
BBX 7 9 0 0
BITMAP
36
6C
00
38
6C
EC
DC
D8
70
ENDCHAR
STARTCHAR OE
ENCODING 338
SWIDTH 1016 0
DWIDTH 13 0
BBX 12 9 1 0
BITMAP
1FF0
7330
6310
E340
E7C0
C640
C620
CE60
7FE0
ENDCHAR
STARTCHAR oe
ENCODING 339
SWIDTH 811 0
DWIDTH 10 0
BBX 10 6 0 0
BITMAP
3B80
6EC0
EF80
DC00
DC80
7700
ENDCHAR
STARTCHAR Racute
ENCODING 340
SWIDTH 681 0
DWIDTH 9 0
BBX 9 12 0 0
BITMAP
0C00
1800
0000
7E00
3300
3300
3600
7E00
6600
6700
6300
F380
ENDCHAR
STARTCHAR racute
ENCODING 341
SWIDTH 440 0
DWIDTH 6 0
BBX 6 9 0 0
BITMAP
18
30
00
EC
7C
60
E0
C0
C0
ENDCHAR
STARTCHAR Rcommaaccent
ENCODING 342
SWIDTH 681 0
DWIDTH 9 0
BBX 9 14 0 -5
BITMAP
7E00
3300
3300
3600
7E00
6600
6700
6300
F380
0000
0C00
0C00
0800
1000
ENDCHAR
STARTCHAR rcommaaccent
ENCODING 343
SWIDTH 440 0
DWIDTH 6 0
BBX 6 11 0 -5
BITMAP
EC
7C
60
E0
C0
C0
00
60
60
40
80
ENDCHAR
STARTCHAR Rcaron
ENCODING 344
SWIDTH 681 0
DWIDTH 9 0
BBX 9 12 0 0
BITMAP
1A00
0C00
0000
7E00
3300
3300
3600
7E00
6600
6700
6300
F380
ENDCHAR
STARTCHAR rcaron
ENCODING 345
SWIDTH 440 0
DWIDTH 6 0
BBX 6 9 0 0
BITMAP
68
30
00
EC
7C
60
E0
C0
C0
ENDCHAR
STARTCHAR Sacute
ENCODING 346
SWIDTH 551 0
DWIDTH 7 0
BBX 7 12 0 0
BITMAP
0C
18
00
3E
66
62
70
38
1C
8C
CC
F8
ENDCHAR
STARTCHAR sacute
ENCODING 347
SWIDTH 417 0
DWIDTH 5 0
BBX 6 9 -1 0
BITMAP
0C
18
00
1C
34
30
18
D8
70
ENDCHAR
STARTCHAR Scircumflex
ENCODING 348
SWIDTH 551 0
DWIDTH 7 0
BBX 7 12 0 0
BITMAP
18
2C
00
3E
66
62
70
38
1C
8C
CC
F8
ENDCHAR
STARTCHAR scircumflex
ENCODING 349
SWIDTH 417 0
DWIDTH 5 0
BBX 6 9 -1 0
BITMAP
18
2C
00
1C
34
30
18
D8
70
ENDCHAR
STARTCHAR Scedilla
ENCODING 350
SWIDTH 551 0
DWIDTH 7 0
BBX 7 12 0 -3
BITMAP
3E
66
62
70
38
1C
8C
CC
F8
10
18
30
ENDCHAR
STARTCHAR scedilla
ENCODING 351
SWIDTH 417 0
DWIDTH 5 0
BBX 6 9 -1 -3
BITMAP
1C
34
30
18
D8
70
20
30
60
ENDCHAR
STARTCHAR Scaron
ENCODING 352
SWIDTH 551 0
DWIDTH 7 0
BBX 7 10 0 0
BITMAP
34
18
00
3E
62
70
38
1C
8C
F8
ENDCHAR
STARTCHAR scaron
ENCODING 353
SWIDTH 417 0
DWIDTH 5 0
BBX 6 9 -1 0
BITMAP
34
18
00
1C
34
30
18
D8
70
ENDCHAR
STARTCHAR Tcommaaccent
ENCODING 354
SWIDTH 616 0
DWIDTH 8 0
BBX 8 12 0 -3
BITMAP
FF
DB
99
18
38
30
30
30
78
10
18
30
ENDCHAR
STARTCHAR tcommaaccent
ENCODING 355
SWIDTH 359 0
DWIDTH 5 0
BBX 4 11 0 -3
BITMAP
20
60
F0
60
E0
C0
D0
E0
40
60
C0
ENDCHAR
STARTCHAR Tcaron
ENCODING 356
SWIDTH 616 0
DWIDTH 8 0
BBX 8 12 0 0
BITMAP
34
18
00
FF
DB
99
18
38
30
30
30
78
ENDCHAR
STARTCHAR tcaron
ENCODING 357
SWIDTH 587 0
DWIDTH 8 0
BBX 8 9 0 0
BITMAP
03
23
62
F4
60
E0
C0
D0
E0
ENDCHAR
STARTCHAR Tbar
ENCODING 358
SWIDTH 616 0
DWIDTH 8 0
BBX 8 9 0 0
BITMAP
FF
DB
99
18
3E
30
30
30
78
ENDCHAR
STARTCHAR tbar
ENCODING 359
SWIDTH 359 0
DWIDTH 5 0
BBX 5 8 0 0
BITMAP
20
60
F0
60
F8
C0
D0
E0
ENDCHAR
STARTCHAR Utilde
ENCODING 360
SWIDTH 776 0
DWIDTH 10 0
BBX 9 12 1 0
BITMAP
1A00
2C00
0000
F780
6300
6300
6300
E700
C600
C600
CE00
7C00
ENDCHAR
STARTCHAR utilde
ENCODING 361
SWIDTH 634 0
DWIDTH 8 0
BBX 8 9 0 0
BITMAP
34
58
00
E6
66
EE
CC
DD
6E
ENDCHAR
STARTCHAR Umacron
ENCODING 362
SWIDTH 776 0
DWIDTH 10 0
BBX 9 11 1 0
BITMAP
1E00
0000
F780
6300
6300
6300
E700
C600
C600
CE00
7C00
ENDCHAR
STARTCHAR umacron
ENCODING 363
SWIDTH 634 0
DWIDTH 8 0
BBX 8 8 0 0
BITMAP
3C
00
E6
66
EE
CC
DD
6E
ENDCHAR
STARTCHAR Ubreve
ENCODING 364
SWIDTH 776 0
DWIDTH 10 0
BBX 9 12 1 0
BITMAP
1200
0C00
0000
F780
6300
6300
6300
E700
C600
C600
CE00
7C00
ENDCHAR
STARTCHAR ubreve
ENCODING 365
SWIDTH 634 0
DWIDTH 8 0
BBX 8 9 0 0
BITMAP
24
18
00
E6
66
EE
CC
DD
6E
ENDCHAR
STARTCHAR Uring
ENCODING 366
SWIDTH 776 0
DWIDTH 10 0
BBX 9 13 1 0
BITMAP
0C00
1200
0C00
0000
F780
6300
6300
6300
E700
C600
C600
CE00
7C00
ENDCHAR
STARTCHAR uring
ENCODING 367
SWIDTH 634 0
DWIDTH 8 0
BBX 8 10 0 0
BITMAP
18
24
18
00
E6
66
EE
CC
DD
6E
ENDCHAR
STARTCHAR Uhungarumlaut
ENCODING 368
SWIDTH 776 0
DWIDTH 10 0
BBX 9 12 1 0
BITMAP
1B00
3600
0000
F780
6300
6300
6300
E700
C600
C600
CE00
7C00
ENDCHAR
STARTCHAR uhungarumlaut
ENCODING 369
SWIDTH 634 0
DWIDTH 8 0
BBX 8 9 0 0
BITMAP
36
6C
00
E6
66
EE
CC
DD
6E
ENDCHAR
STARTCHAR Uogonek
ENCODING 370
SWIDTH 776 0
DWIDTH 10 0
BBX 9 12 1 -3
BITMAP
F780
6300
6300
6300
E700
C600
C600
CE00
7C00
0800
1000
1800
ENDCHAR
STARTCHAR uogonek
ENCODING 371
SWIDTH 634 0
DWIDTH 8 0
BBX 8 9 0 -3
BITMAP
E6
66
EE
CC
DD
6E
08
10
18
ENDCHAR
STARTCHAR Wcircumflex
ENCODING 372
SWIDTH 920 0
DWIDTH 12 0
BBX 13 12 0 0
BITMAP
0600
0B00
0000
F338
6310
6720
6720
6B40
6B40
7380
7380
6300
ENDCHAR
STARTCHAR wcircumflex
ENCODING 373
SWIDTH 795 0
DWIDTH 10 0
BBX 10 9 0 0
BITMAP
0C00
1600
0000
E6C0
66C0
ECC0
CC80
DD00
6600
ENDCHAR
STARTCHAR Ycircumflex
ENCODING 374
SWIDTH 622 0
DWIDTH 8 0
BBX 8 12 1 0
BITMAP
18
2C
00
F7
66
64
68
30
70
60
60
F0
ENDCHAR
STARTCHAR ycircumflex
ENCODING 375
SWIDTH 489 0
DWIDTH 6 0
BBX 7 12 -1 -3
BITMAP
18
2C
00
76
36
34
38
38
30
30
A0
C0
ENDCHAR
STARTCHAR Ydieresis
ENCODING 376
SWIDTH 622 0
DWIDTH 8 0
BBX 8 10 1 0
BITMAP
14
14
00
F7
62
64
68
30
60
F0
ENDCHAR
STARTCHAR Zacute
ENCODING 377
SWIDTH 618 0
DWIDTH 8 0
BBX 8 12 0 0
BITMAP
0C
18
00
7F
4E
0C
18
38
30
60
E2
FE
ENDCHAR
STARTCHAR zacute
ENCODING 378
SWIDTH 466 0
DWIDTH 6 0
BBX 5 9 0 0
BITMAP
30
60
00
78
F0
20
40
F8
B0
ENDCHAR
STARTCHAR Zdotaccent
ENCODING 379
SWIDTH 618 0
DWIDTH 8 0
BBX 8 12 0 0
BITMAP
08
08
00
7F
4E
0C
18
38
30
60
E2
FE
ENDCHAR
STARTCHAR zdotaccent
ENCODING 380
SWIDTH 466 0
DWIDTH 6 0
BBX 5 9 0 0
BITMAP
20
20
00
78
F0
20
40
F8
B0
ENDCHAR
STARTCHAR Zcaron
ENCODING 381
SWIDTH 618 0
DWIDTH 8 0
BBX 8 10 0 0
BITMAP
1A
0C
00
7F
4E
1C
38
70
E2
FE
ENDCHAR
STARTCHAR zcaron
ENCODING 382
SWIDTH 466 0
DWIDTH 6 0
BBX 5 9 0 0
BITMAP
68
30
00
78
F0
20
40
F8
B0
ENDCHAR
STARTCHAR uni0186
ENCODING 390
SWIDTH 672 0
DWIDTH 8 0
BBX 8 9 0 0
BITMAP
3E
63
43
03
07
07
86
CE
F8
ENDCHAR
STARTCHAR uni0189
ENCODING 393
SWIDTH 780 0
DWIDTH 10 0
BBX 9 9 0 0
BITMAP
7F00
3180
3180
3180
FB80
6380
6300
6700
FC00
ENDCHAR
STARTCHAR uni018E
ENCODING 398
SWIDTH 622 0
DWIDTH 8 0
BBX 8 9 0 0
BITMAP
7F
66
46
26
3E
2C
8C
CC
FE
ENDCHAR
STARTCHAR florin
ENCODING 402
SWIDTH 560 0
DWIDTH 7 0
BBX 7 11 0 -2
BITMAP
0E
1A
18
7E
18
38
30
30
30
B0
E0
ENDCHAR
STARTCHAR uni0197
ENCODING 407
SWIDTH 386 0
DWIDTH 5 0
BBX 5 9 0 0
BITMAP
78
30
30
30
F8
60
60
60
F0
ENDCHAR
STARTCHAR uni019A
ENCODING 410
SWIDTH 327 0
DWIDTH 4 0
BBX 5 10 0 0
BITMAP
70
30
70
60
F8
60
E0
C0
D0
E0
ENDCHAR
STARTCHAR uni019D
ENCODING 413
SWIDTH 741 0
DWIDTH 9 0
BBX 12 12 -3 -3
BITMAP
1C70
0E20
0E20
0B20
1B40
11C0
19C0
18C0
18C0
3000
B000
E000
ENDCHAR
STARTCHAR uni019F
ENCODING 415
SWIDTH 761 0
DWIDTH 10 0
BBX 8 9 1 0
BITMAP
1E
73
63
E3
FF
C7
C6
CE
78
ENDCHAR
STARTCHAR Ohorn
ENCODING 416
SWIDTH 761 0
DWIDTH 10 0
BBX 11 9 1 0
BITMAP
1E60
7360
6340
E380
E700
C700
C600
CE00
7800
ENDCHAR
STARTCHAR ohorn
ENCODING 417
SWIDTH 562 0
DWIDTH 7 0
BBX 9 6 0 0
BITMAP
3980
6D80
ED00
DE00
D800
7000
ENDCHAR
STARTCHAR Uhorn
ENCODING 431
SWIDTH 776 0
DWIDTH 10 0
BBX 11 9 1 0
BITMAP
F7E0
6360
6340
6380
E700
C600
C600
CE00
7C00
ENDCHAR
STARTCHAR uhorn
ENCODING 432
SWIDTH 634 0
DWIDTH 8 0
BBX 11 6 0 0
BITMAP
E660
6660
EE40
CC80
DD00
6E00
ENDCHAR
STARTCHAR uni01B5
ENCODING 437
SWIDTH 618 0
DWIDTH 8 0
BBX 8 9 0 0
BITMAP
7F
4E
0C
18
3E
30
60
E2
FE
ENDCHAR
STARTCHAR uni01B6
ENCODING 438
SWIDTH 466 0
DWIDTH 6 0
BBX 5 6 0 0
BITMAP
78
F0
F8
40
F8
B0
ENDCHAR
STARTCHAR uni01BB
ENCODING 443
SWIDTH 560 0
DWIDTH 7 0
BBX 7 9 0 0
BITMAP
3C
66
66
0C
FE
30
62
FC
FC
ENDCHAR
STARTCHAR uni01BC
ENCODING 444
SWIDTH 560 0
DWIDTH 7 0
BBX 7 9 0 0
BITMAP
3E
3E
60
78
4C
0C
CC
CC
78
ENDCHAR
STARTCHAR uni01C0
ENCODING 448
SWIDTH 265 0
DWIDTH 3 0
BBX 2 9 0 0
BITMAP
C0
C0
C0
C0
C0
C0
C0
C0
C0
ENDCHAR
STARTCHAR uni01C2
ENCODING 450
SWIDTH 600 0
DWIDTH 7 0
BBX 6 9 0 -1
BITMAP
30
30
30
FC
30
FC
30
30
30
ENDCHAR
STARTCHAR uni01C3
ENCODING 451
SWIDTH 285 0
DWIDTH 4 0
BBX 4 9 0 0
BITMAP
30
30
70
60
60
40
00
C0
C0
ENDCHAR
STARTCHAR uni01CD
ENCODING 461
SWIDTH 634 0
DWIDTH 8 0
BBX 9 12 -1 0
BITMAP
1A00
0C00
0000
0600
0E00
0E00
1600
1300
3F00
2300
4300
E780
ENDCHAR
STARTCHAR uni01CE
ENCODING 462
SWIDTH 596 0
DWIDTH 7 0
BBX 7 9 0 0
BITMAP
34
18
00
3C
6C
CC
D8
DA
6C
ENDCHAR
STARTCHAR uni01CF
ENCODING 463
SWIDTH 386 0
DWIDTH 5 0
BBX 5 12 0 0
BITMAP
68
30
00
78
30
30
30
70
60
60
60
F0
ENDCHAR
STARTCHAR uni01D0
ENCODING 464
SWIDTH 339 0
DWIDTH 4 0
BBX 4 9 0 0
BITMAP
D0
60
00
E0
60
E0
C0
D0
E0
ENDCHAR
STARTCHAR uni01D1
ENCODING 465
SWIDTH 761 0
DWIDTH 10 0
BBX 8 12 1 0
BITMAP
34
18
00
1E
73
63
E3
E7
C7
C6
CE
78
ENDCHAR
STARTCHAR uni01D2
ENCODING 466
SWIDTH 562 0
DWIDTH 7 0
BBX 6 9 0 0
BITMAP
68
30
00
38
6C
EC
DC
D8
70
ENDCHAR
STARTCHAR uni01D3
ENCODING 467
SWIDTH 776 0
DWIDTH 10 0
BBX 9 12 1 0
BITMAP
1A00
0C00
0000
F780
6300
6300
6300
E700
C600
C600
CE00
7C00
ENDCHAR
STARTCHAR uni01D4
ENCODING 468
SWIDTH 634 0
DWIDTH 8 0
BBX 8 9 0 0
BITMAP
34
18
00
E6
66
EE
CC
DD
6E
ENDCHAR
STARTCHAR uni01D5
ENCODING 469
SWIDTH 776 0
DWIDTH 10 0
BBX 9 12 1 0
BITMAP
1E00
0000
0A00
0A00
0000
F780
6300
6300
C600
C600
CE00
7C00
ENDCHAR
STARTCHAR uni01D6
ENCODING 470
SWIDTH 634 0
DWIDTH 8 0
BBX 8 11 0 0
BITMAP
3C
00
14
14
00
E6
66
EE
CC
DD
6E
ENDCHAR
STARTCHAR uni01D7
ENCODING 471
SWIDTH 776 0
DWIDTH 10 0
BBX 9 13 1 0
BITMAP
0600
0C00
0000
0A00
0A00
0000
F780
6300
6300
C600
C600
CE00
7C00
ENDCHAR
STARTCHAR uni01D8
ENCODING 472
SWIDTH 634 0
DWIDTH 8 0
BBX 8 12 0 0
BITMAP
0C
18
00
14
14
00
E6
66
EE
CC
DD
6E
ENDCHAR
STARTCHAR uni01D9
ENCODING 473
SWIDTH 776 0
DWIDTH 10 0
BBX 9 13 1 0
BITMAP
1A00
0C00
0000
0A00
0A00
0000
F780
6300
6300
C600
C600
CE00
7C00
ENDCHAR
STARTCHAR uni01DA
ENCODING 474
SWIDTH 634 0
DWIDTH 8 0
BBX 8 12 0 0
BITMAP
34
18
00
14
14
00
E6
66
EE
CC
DD
6E
ENDCHAR
STARTCHAR uni01DB
ENCODING 475
SWIDTH 776 0
DWIDTH 10 0
BBX 9 13 1 0
BITMAP
1800
0C00
0000
0A00
0A00
0000
F780
6300
6300
C600
C600
CE00
7C00
ENDCHAR
STARTCHAR uni01DC
ENCODING 476
SWIDTH 634 0
DWIDTH 8 0
BBX 8 12 0 0
BITMAP
18
0C
00
14
14
00
E6
66
EE
CC
DD
6E
ENDCHAR
STARTCHAR uni01DD
ENCODING 477
SWIDTH 476 0
DWIDTH 6 0
BBX 6 6 0 0
BITMAP
38
4C
0C
7C
D8
70
ENDCHAR
STARTCHAR uni01DE
ENCODING 478
SWIDTH 634 0
DWIDTH 8 0
BBX 9 12 -1 0
BITMAP
0F00
0000
0500
0500
0000
0600
0E00
1600
1300
3F00
4300
E780
ENDCHAR
STARTCHAR uni01DF
ENCODING 479
SWIDTH 596 0
DWIDTH 7 0
BBX 7 11 0 0
BITMAP
3C
00
14
14
00
3C
6C
CC
D8
DA
6C
ENDCHAR
STARTCHAR uni01E0
ENCODING 480
SWIDTH 634 0
DWIDTH 8 0
BBX 9 14 -1 0
BITMAP
1E00
0000
0400
0400
0000
0600
0E00
0E00
1600
1300
3F00
2300
4300
E780
ENDCHAR
STARTCHAR uni01E1
ENCODING 481
SWIDTH 596 0
DWIDTH 7 0
BBX 7 11 0 0
BITMAP
3C
00
10
10
00
3C
6C
CC
D8
DA
6C
ENDCHAR
STARTCHAR uni01E2
ENCODING 482
SWIDTH 890 0
DWIDTH 11 0
BBX 12 11 -1 0
BITMAP
0780
0000
1FF0
0B30
0B10
1340
1FC0
2640
2620
4660
EFE0
ENDCHAR
STARTCHAR uni01E3
ENCODING 483
SWIDTH 789 0
DWIDTH 10 0
BBX 10 9 0 0
BITMAP
1E00
0000
0200
3F80
66C0
EF80
CC00
DC80
6700
ENDCHAR
STARTCHAR uni01E4
ENCODING 484
SWIDTH 726 0
DWIDTH 9 0
BBX 9 9 1 0
BITMAP
1F00
7300
6100
E000
E000
CF00
CF80
C600
7C00
ENDCHAR
STARTCHAR uni01E5
ENCODING 485
SWIDTH 522 0
DWIDTH 7 0
BBX 8 9 -1 -3
BITMAP
1F
36
36
3C
18
3C
FF
C6
7C
ENDCHAR
STARTCHAR Gcaron
ENCODING 486
SWIDTH 726 0
DWIDTH 9 0
BBX 8 12 1 0
BITMAP
34
18
00
1F
73
61
E0
E0
CF
C6
C6
7C
ENDCHAR
STARTCHAR gcaron
ENCODING 487
SWIDTH 522 0
DWIDTH 7 0
BBX 8 12 -1 -3
BITMAP
1A
0C
00
1F
36
36
3C
18
3C
6E
C6
7C
ENDCHAR
STARTCHAR uni01E8
ENCODING 488
SWIDTH 688 0
DWIDTH 9 0
BBX 9 12 0 0
BITMAP
1A00
0C00
0000
7B80
3300
3200
3400
7C00
6E00
6600
6700
F380
ENDCHAR
STARTCHAR uni01E9
ENCODING 489
SWIDTH 570 0
DWIDTH 7 0
BBX 7 13 0 0
BITMAP
68
30
00
70
30
70
60
64
6C
F0
F8
DE
CC
ENDCHAR
STARTCHAR uni01EA
ENCODING 490
SWIDTH 761 0
DWIDTH 10 0
BBX 8 12 1 -3
BITMAP
1E
73
63
E3
E7
C7
C6
CE
78
10
20
30
ENDCHAR
STARTCHAR uni01EB
ENCODING 491
SWIDTH 562 0
DWIDTH 7 0
BBX 6 9 0 -3
BITMAP
38
6C
EC
DC
D8
70
20
40
60
ENDCHAR
STARTCHAR uni01EC
ENCODING 492
SWIDTH 761 0
DWIDTH 10 0
BBX 8 14 1 -3
BITMAP
3C
00
1E
73
63
E3
E7
C7
C6
CE
78
10
20
30
ENDCHAR
STARTCHAR uni01ED
ENCODING 493
SWIDTH 562 0
DWIDTH 7 0
BBX 6 11 0 -3
BITMAP
78
00
38
6C
EC
DC
D8
70
20
40
60
ENDCHAR
STARTCHAR uni01F0
ENCODING 496
SWIDTH 333 0
DWIDTH 4 0
BBX 7 12 -3 -3
BITMAP
34
18
00
1C
0C
1C
18
18
18
30
B0
E0
ENDCHAR
STARTCHAR uni01F4
ENCODING 500
SWIDTH 726 0
DWIDTH 9 0
BBX 8 12 1 0
BITMAP
0C
18
00
1F
73
61
E0
E0
CF
C6
C6
7C
ENDCHAR
STARTCHAR uni01F5
ENCODING 501
SWIDTH 522 0
DWIDTH 7 0
BBX 8 12 -1 -3
BITMAP
0C
18
00
1F
36
36
3C
18
3C
6E
C6
7C
ENDCHAR
STARTCHAR uni01F8
ENCODING 504
SWIDTH 741 0
DWIDTH 9 0
BBX 10 12 -1 0
BITMAP
1800
0C00
0000
71C0
3880
3880
2C80
6D00
4700
4700
4300
E300
ENDCHAR
STARTCHAR uni01F9
ENCODING 505
SWIDTH 635 0
DWIDTH 8 0
BBX 8 9 0 0
BITMAP
30
18
00
EC
76
66
EE
CD
CE
ENDCHAR
STARTCHAR Aringacute
ENCODING 506
SWIDTH 634 0
DWIDTH 8 0
BBX 9 13 -1 0
BITMAP
0600
0C00
0000
0600
0900
0600
0600
0E00
1600
1300
3F00
4300
E780
ENDCHAR
STARTCHAR aringacute
ENCODING 507
SWIDTH 596 0
DWIDTH 7 0
BBX 7 13 0 0
BITMAP
0C
18
00
0C
12
0C
00
3C
6C
CC
D8
DA
6C
ENDCHAR
STARTCHAR AEacute
ENCODING 508
SWIDTH 890 0
DWIDTH 11 0
BBX 12 12 -1 0
BITMAP
0180
0300
0000
1FF0
0B30
0B10
1340
1FC0
2640
2620
4660
EFE0
ENDCHAR
STARTCHAR aeacute
ENCODING 509
SWIDTH 789 0
DWIDTH 10 0
BBX 10 10 0 0
BITMAP
0600
0C00
0000
0200
3F80
66C0
EF80
CC00
DC80
6700
ENDCHAR
STARTCHAR Oslashacute
ENCODING 510
SWIDTH 761 0
DWIDTH 10 0
BBX 10 12 0 0
BITMAP
0600
0C00
0000
0F40
3980
3380
7580
7B80
6B80
7300
6700
BC00
ENDCHAR
STARTCHAR oslashacute
ENCODING 511
SWIDTH 562 0
DWIDTH 7 0
BBX 6 11 0 -1
BITMAP
18
30
00
04
38
6C
EC
DC
D8
70
80
ENDCHAR
STARTCHAR Scommaaccent
ENCODING 536
SWIDTH 551 0
DWIDTH 7 0
BBX 7 14 0 -5
BITMAP
3E
66
62
70
38
1C
8C
CC
F8
00
30
30
20
40
ENDCHAR
STARTCHAR scommaaccent
ENCODING 537
SWIDTH 417 0
DWIDTH 5 0
BBX 6 11 -1 -5
BITMAP
1C
34
30
18
D8
70
00
30
30
20
40
ENDCHAR
STARTCHAR Tcommaaccent
ENCODING 538
SWIDTH 616 0
DWIDTH 8 0
BBX 8 14 0 -5
BITMAP
FF
DB
99
18
38
30
30
30
78
00
18
18
10
20
ENDCHAR
STARTCHAR tcommaaccent
ENCODING 539
SWIDTH 359 0
DWIDTH 5 0
BBX 4 13 0 -5
BITMAP
20
60
F0
60
E0
C0
D0
E0
00
60
60
40
80
ENDCHAR
STARTCHAR uni021E
ENCODING 542
SWIDTH 800 0
DWIDTH 10 0
BBX 10 12 0 0
BITMAP
1A00
0C00
0000
7BC0
3180
3180
3180
7F80
6300
6300
6300
F780
ENDCHAR
STARTCHAR uni021F
ENCODING 543
SWIDTH 629 0
DWIDTH 8 0
BBX 8 13 0 0
BITMAP
68
30
00
70
30
30
70
6C
76
66
EE
CD
CE
ENDCHAR
STARTCHAR uni0226
ENCODING 550
SWIDTH 634 0
DWIDTH 8 0
BBX 9 12 -1 0
BITMAP
0400
0400
0000
0600
0E00
0E00
1600
1300
3F00
2300
4300
E780
ENDCHAR
STARTCHAR uni0227
ENCODING 551
SWIDTH 596 0
DWIDTH 7 0
BBX 7 9 0 0
BITMAP
10
10
00
3C
6C
CC
D8
DA
6C
ENDCHAR
STARTCHAR uni0228
ENCODING 552
SWIDTH 622 0
DWIDTH 8 0
BBX 8 12 0 -3
BITMAP
7F
33
31
34
7C
64
62
66
FE
10
18
30
ENDCHAR
STARTCHAR uni0229
ENCODING 553
SWIDTH 476 0
DWIDTH 6 0
BBX 6 9 0 -3
BITMAP
38
6C
F8
C0
C8
70
20
30
60
ENDCHAR
STARTCHAR uni022A
ENCODING 554
SWIDTH 761 0
DWIDTH 10 0
BBX 8 12 1 0
BITMAP
3C
00
14
14
00
3E
63
E3
C3
C7
C6
7C
ENDCHAR
STARTCHAR uni022B
ENCODING 555
SWIDTH 562 0
DWIDTH 7 0
BBX 6 11 0 0
BITMAP
78
00
28
28
00
38
6C
EC
DC
D8
70
ENDCHAR
STARTCHAR uni022C
ENCODING 556
SWIDTH 761 0
DWIDTH 10 0
BBX 8 12 1 0
BITMAP
1E
00
0D
16
00
3E
63
E3
C3
C7
C6
7C
ENDCHAR
STARTCHAR uni022D
ENCODING 557
SWIDTH 562 0
DWIDTH 7 0
BBX 6 11 0 0
BITMAP
78
00
34
58
00
38
6C
EC
DC
D8
70
ENDCHAR
STARTCHAR uni022E
ENCODING 558
SWIDTH 761 0
DWIDTH 10 0
BBX 8 12 1 0
BITMAP
08
08
00
1E
73
63
E3
E7
C7
C6
CE
78
ENDCHAR
STARTCHAR uni022F
ENCODING 559
SWIDTH 562 0
DWIDTH 7 0
BBX 6 9 0 0
BITMAP
10
10
00
38
6C
EC
DC
D8
70
ENDCHAR
STARTCHAR uni0230
ENCODING 560
SWIDTH 761 0
DWIDTH 10 0
BBX 8 14 1 0
BITMAP
1E
00
08
08
00
1E
73
63
E3
E7
C7
C6
CE
78
ENDCHAR
STARTCHAR uni0231
ENCODING 561
SWIDTH 562 0
DWIDTH 7 0
BBX 6 11 0 0
BITMAP
78
00
10
10
00
38
6C
EC
DC
D8
70
ENDCHAR
STARTCHAR uni0232
ENCODING 562
SWIDTH 622 0
DWIDTH 8 0
BBX 8 11 1 0
BITMAP
3C
00
F7
66
64
68
30
70
60
60
F0
ENDCHAR
STARTCHAR uni0233
ENCODING 563
SWIDTH 489 0
DWIDTH 6 0
BBX 7 11 -1 -3
BITMAP
3C
00
76
36
34
38
38
30
30
A0
C0
ENDCHAR
STARTCHAR uni0250
ENCODING 592
SWIDTH 596 0
DWIDTH 7 0
BBX 7 6 0 0
BITMAP
6C
B6
36
66
6C
78
ENDCHAR
STARTCHAR uni0259
ENCODING 601
SWIDTH 476 0
DWIDTH 6 0
BBX 6 6 0 0
BITMAP
38
4C
0C
7C
D8
70
ENDCHAR
STARTCHAR uni025F
ENCODING 607
SWIDTH 348 0
DWIDTH 4 0
BBX 8 13 -2 -7
BITMAP
07
0D
0C
0C
1C
18
18
18
7C
30
30
B0
E0
ENDCHAR
STARTCHAR uni0265
ENCODING 613
SWIDTH 629 0
DWIDTH 8 0
BBX 8 10 0 -4
BITMAP
73
B3
77
66
6E
36
0E
0C
0C
0E
ENDCHAR
STARTCHAR uni0275
ENCODING 629
SWIDTH 562 0
DWIDTH 7 0
BBX 6 6 0 0
BITMAP
38
6C
FC
DC
D8
70
ENDCHAR
STARTCHAR uni0279
ENCODING 633
SWIDTH 440 0
DWIDTH 6 0
BBX 6 6 0 0
BITMAP
0C
0C
1C
18
F8
DC
ENDCHAR
STARTCHAR uni0287
ENCODING 647
SWIDTH 359 0
DWIDTH 5 0
BBX 4 8 0 0
BITMAP
70
B0
30
70
60
F0
60
40
ENDCHAR
STARTCHAR uni0289
ENCODING 649
SWIDTH 634 0
DWIDTH 8 0
BBX 8 6 0 0
BITMAP
E6
66
FF
CC
DD
6E
ENDCHAR
STARTCHAR uni028C
ENCODING 652
SWIDTH 518 0
DWIDTH 7 0
BBX 6 6 0 0
BITMAP
18
2C
4C
DC
D8
DC
ENDCHAR
STARTCHAR uni028D
ENCODING 653
SWIDTH 795 0
DWIDTH 10 0
BBX 10 6 0 0
BITMAP
1980
2EC0
4CC0
CDC0
D980
D9C0
ENDCHAR
STARTCHAR uni028E
ENCODING 654
SWIDTH 489 0
DWIDTH 6 0
BBX 7 9 -1 0
BITMAP
06
0A
18
18
38
38
58
D8
DC
ENDCHAR
STARTCHAR uni029E
ENCODING 670
SWIDTH 570 0
DWIDTH 7 0
BBX 7 10 0 -4
BITMAP
66
F6
3E
1E
6C
4C
0C
1C
18
1C
ENDCHAR
STARTCHAR uni02BB
ENCODING 699
SWIDTH 246 0
DWIDTH 3 0
BBX 3 4 0 5
BITMAP
20
40
C0
C0
ENDCHAR
STARTCHAR afii57929
ENCODING 700
SWIDTH 246 0
DWIDTH 3 0
BBX 3 4 0 5
BITMAP
60
60
40
80
ENDCHAR
STARTCHAR afii64937
ENCODING 701
SWIDTH 246 0
DWIDTH 3 0
BBX 3 4 0 5
BITMAP
C0
C0
40
20
ENDCHAR
STARTCHAR circumflex
ENCODING 710
SWIDTH 400 0
DWIDTH 5 0
BBX 4 2 1 7
BITMAP
60
B0
ENDCHAR
STARTCHAR caron
ENCODING 711
SWIDTH 400 0
DWIDTH 5 0
BBX 4 2 1 7
BITMAP
D0
60
ENDCHAR
STARTCHAR uni02C8
ENCODING 712
SWIDTH 246 0
DWIDTH 3 0
BBX 2 4 1 5
BITMAP
C0
C0
80
80
ENDCHAR
STARTCHAR macron
ENCODING 713
SWIDTH 400 0
DWIDTH 5 0
BBX 4 1 0 7
BITMAP
F0
ENDCHAR
STARTCHAR uni02CA
ENCODING 714
SWIDTH 400 0
DWIDTH 5 0
BBX 3 2 1 7
BITMAP
60
C0
ENDCHAR
STARTCHAR uni02CB
ENCODING 715
SWIDTH 400 0
DWIDTH 5 0
BBX 3 2 1 7
BITMAP
C0
60
ENDCHAR
STARTCHAR uni02CD
ENCODING 717
SWIDTH 400 0
DWIDTH 5 0
BBX 4 1 0 -2
BITMAP
F0
ENDCHAR
STARTCHAR uni02CE
ENCODING 718
SWIDTH 400 0
DWIDTH 5 0
BBX 3 2 1 -3
BITMAP
C0
60
ENDCHAR
STARTCHAR uni02CF
ENCODING 719
SWIDTH 400 0
DWIDTH 5 0
BBX 3 2 1 -3
BITMAP
60
C0
ENDCHAR
STARTCHAR breve
ENCODING 728
SWIDTH 400 0
DWIDTH 5 0
BBX 4 2 1 7
BITMAP
90
60
ENDCHAR
STARTCHAR dotaccent
ENCODING 729
SWIDTH 402 0
DWIDTH 5 0
BBX 1 2 2 7
BITMAP
80
80
ENDCHAR
STARTCHAR ring
ENCODING 730
SWIDTH 400 0
DWIDTH 5 0
BBX 4 3 1 7
BITMAP
60
90
60
ENDCHAR
STARTCHAR ogonek
ENCODING 731
SWIDTH 350 0
DWIDTH 4 0
BBX 2 3 0 -3
BITMAP
40
80
C0
ENDCHAR
STARTCHAR tilde
ENCODING 732
SWIDTH 400 0
DWIDTH 5 0
BBX 5 2 0 7
BITMAP
68
B0
ENDCHAR
STARTCHAR hungarumlaut
ENCODING 733
SWIDTH 400 0
DWIDTH 6 0
BBX 6 2 0 7
BITMAP
6C
D8
ENDCHAR
STARTCHAR uni02EE
ENCODING 750
SWIDTH 455 0
DWIDTH 6 0
BBX 6 4 0 5
BITMAP
6C
6C
48
90
ENDCHAR
STARTCHAR uni037E
ENCODING 894
SWIDTH 280 0
DWIDTH 3 0
BBX 4 8 -1 -2
BITMAP
30
30
00
00
60
60
40
80
ENDCHAR
STARTCHAR tonos
ENCODING 900
SWIDTH 400 0
DWIDTH 5 0
BBX 3 2 1 7
BITMAP
60
C0
ENDCHAR
STARTCHAR dieresistonos
ENCODING 901
SWIDTH 400 0
DWIDTH 5 0
BBX 3 5 1 7
BITMAP
60
C0
00
A0
A0
ENDCHAR
STARTCHAR anoteleia
ENCODING 903
SWIDTH 280 0
DWIDTH 4 0
BBX 2 2 0 3
BITMAP
C0
C0
ENDCHAR
STARTCHAR mu
ENCODING 956
SWIDTH 634 0
DWIDTH 8 0
BBX 9 9 -1 -3
BITMAP
7300
3300
7700
6600
6E80
7700
C000
C000
C000
ENDCHAR
STARTCHAR uni1E00
ENCODING 7680
SWIDTH 634 0
DWIDTH 8 0
BBX 9 13 -1 -4
BITMAP
0600
0E00
0E00
1600
1300
3F00
2300
4300
E780
0000
0C00
1200
0C00
ENDCHAR
STARTCHAR uni1E01
ENCODING 7681
SWIDTH 596 0
DWIDTH 7 0
BBX 7 10 0 -4
BITMAP
3C
6C
CC
D8
DA
6C
00
30
48
30
ENDCHAR
STARTCHAR uni1E02
ENCODING 7682
SWIDTH 680 0
DWIDTH 9 0
BBX 8 12 0 0
BITMAP
08
08
00
7E
33
33
36
7E
63
63
67
FE
ENDCHAR
STARTCHAR uni1E03
ENCODING 7683
SWIDTH 586 0
DWIDTH 7 0
BBX 7 13 0 0
BITMAP
20
20
00
70
30
70
60
6C
76
E6
CE
EC
D8
ENDCHAR
STARTCHAR uni1E04
ENCODING 7684
SWIDTH 680 0
DWIDTH 9 0
BBX 8 12 0 -3
BITMAP
7E
33
33
36
7E
63
63
67
FE
00
08
08
ENDCHAR
STARTCHAR uni1E05
ENCODING 7685
SWIDTH 586 0
DWIDTH 7 0
BBX 7 13 0 -3
BITMAP
70
30
70
60
6C
76
E6
CE
EC
D8
00
10
10
ENDCHAR
STARTCHAR uni1E06
ENCODING 7686
SWIDTH 680 0
DWIDTH 9 0
BBX 8 11 0 -2
BITMAP
7E
33
33
36
7E
63
63
67
FE
00
3C
ENDCHAR
STARTCHAR uni1E07
ENCODING 7687
SWIDTH 586 0
DWIDTH 7 0
BBX 7 12 0 -2
BITMAP
70
30
70
60
6C
76
E6
CE
EC
D8
00
78
ENDCHAR
STARTCHAR uni1E08
ENCODING 7688
SWIDTH 672 0
DWIDTH 8 0
BBX 8 15 0 -3
BITMAP
0C
18
00
1F
73
61
E0
E0
C0
C2
C6
7C
10
18
30
ENDCHAR
STARTCHAR uni1E09
ENCODING 7689
SWIDTH 456 0
DWIDTH 6 0
BBX 6 12 0 -3
BITMAP
18
30
00
38
6C
E0
C0
C8
70
20
30
60
ENDCHAR
STARTCHAR uni1E0A
ENCODING 7690
SWIDTH 774 0
DWIDTH 10 0
BBX 9 12 0 0
BITMAP
0800
0800
0000
7F00
3180
3180
3180
7380
6380
6300
6700
FC00
ENDCHAR
STARTCHAR uni1E0B
ENCODING 7691
SWIDTH 609 0
DWIDTH 8 0
BBX 8 13 0 0
BITMAP
04
04
00
07
03
07
06
3E
66
EE
CC
DD
6E
ENDCHAR
STARTCHAR uni1E0C
ENCODING 7692
SWIDTH 774 0
DWIDTH 10 0
BBX 9 12 0 -3
BITMAP
7F00
3180
3180
3180
7380
6380
6300
6700
FC00
0000
0800
0800
ENDCHAR
STARTCHAR uni1E0D
ENCODING 7693
SWIDTH 609 0
DWIDTH 8 0
BBX 8 13 0 -3
BITMAP
07
03
07
06
3E
66
EE
CC
DD
6E
00
10
10
ENDCHAR
STARTCHAR uni1E0E
ENCODING 7694
SWIDTH 774 0
DWIDTH 10 0
BBX 9 11 0 -2
BITMAP
7F00
3180
3180
3180
7380
6380
6300
6700
FC00
0000
3C00
ENDCHAR
STARTCHAR uni1E0F
ENCODING 7695
SWIDTH 609 0
DWIDTH 8 0
BBX 8 12 0 -2
BITMAP
07
03
07
06
3E
66
EE
CC
DD
6E
00
3C
ENDCHAR
STARTCHAR uni1E10
ENCODING 7696
SWIDTH 774 0
DWIDTH 10 0
BBX 9 12 0 -3
BITMAP
7F00
3180
3180
3180
7380
6380
6300
6700
FC00
0800
0C00
1800
ENDCHAR
STARTCHAR uni1E11
ENCODING 7697
SWIDTH 609 0
DWIDTH 8 0
BBX 8 13 0 -3
BITMAP
07
03
07
06
3E
66
EE
CC
DD
6E
10
18
30
ENDCHAR
STARTCHAR uni1E12
ENCODING 7698
SWIDTH 774 0
DWIDTH 10 0
BBX 9 12 0 -3
BITMAP
7F00
3180
3180
3180
7380
6380
6300
6700
FC00
0000
1800
2C00
ENDCHAR
STARTCHAR uni1E13
ENCODING 7699
SWIDTH 609 0
DWIDTH 8 0
BBX 8 13 0 -3
BITMAP
07
03
07
06
3E
66
EE
CC
DD
6E
00
18
2C
ENDCHAR
STARTCHAR uni1E14
ENCODING 7700
SWIDTH 622 0
DWIDTH 8 0
BBX 8 14 0 0
BITMAP
30
18
00
3C
00
7F
33
31
34
7C
64
62
66
FE
ENDCHAR
STARTCHAR uni1E15
ENCODING 7701
SWIDTH 476 0
DWIDTH 6 0
BBX 6 11 0 0
BITMAP
60
30
00
78
00
38
6C
F8
C0
C8
70
ENDCHAR
STARTCHAR uni1E16
ENCODING 7702
SWIDTH 622 0
DWIDTH 8 0
BBX 8 14 0 0
BITMAP
0C
18
00
3C
00
7F
33
31
34
7C
64
62
66
FE
ENDCHAR
STARTCHAR uni1E17
ENCODING 7703
SWIDTH 476 0
DWIDTH 6 0
BBX 6 11 0 0
BITMAP
18
30
00
78
00
38
6C
F8
C0
C8
70
ENDCHAR
STARTCHAR uni1E18
ENCODING 7704
SWIDTH 622 0
DWIDTH 8 0
BBX 8 12 0 -3
BITMAP
7F
33
31
34
7C
64
62
66
FE
00
18
2C
ENDCHAR
STARTCHAR uni1E19
ENCODING 7705
SWIDTH 476 0
DWIDTH 6 0
BBX 6 9 0 -3
BITMAP
38
6C
F8
C0
C8
70
00
30
58
ENDCHAR
STARTCHAR uni1E1A
ENCODING 7706
SWIDTH 622 0
DWIDTH 8 0
BBX 8 12 0 -3
BITMAP
7F
33
31
34
7C
64
62
66
FE
00
34
58
ENDCHAR
STARTCHAR uni1E1B
ENCODING 7707
SWIDTH 476 0
DWIDTH 6 0
BBX 6 9 0 -3
BITMAP
38
6C
F8
C0
C8
70
00
68
B0
ENDCHAR
STARTCHAR uni1E1C
ENCODING 7708
SWIDTH 622 0
DWIDTH 8 0
BBX 8 15 0 -3
BITMAP
24
18
00
7F
33
31
34
7C
64
62
66
FE
10
18
30
ENDCHAR
STARTCHAR uni1E1D
ENCODING 7709
SWIDTH 476 0
DWIDTH 6 0
BBX 6 12 0 -3
BITMAP
48
30
00
38
6C
F8
C0
C8
70
20
30
60
ENDCHAR
STARTCHAR uni1E1E
ENCODING 7710
SWIDTH 585 0
DWIDTH 7 0
BBX 8 12 0 0
BITMAP
08
08
00
7F
33
31
34
7C
64
60
60
F0
ENDCHAR
STARTCHAR uni1E1F
ENCODING 7711
SWIDTH 348 0
DWIDTH 4 0
BBX 8 16 -2 -3
BITMAP
04
04
00
07
0D
0C
0C
3E
18
18
18
38
30
30
B0
E0
ENDCHAR
STARTCHAR uni1E20
ENCODING 7712
SWIDTH 726 0
DWIDTH 9 0
BBX 8 11 1 0
BITMAP
3C
00
1F
73
61
E0
E0
CF
C6
C6
7C
ENDCHAR
STARTCHAR uni1E21
ENCODING 7713
SWIDTH 522 0
DWIDTH 7 0
BBX 8 11 -1 -3
BITMAP
1E
00
1F
36
36
3C
18
3C
6E
C6
7C
ENDCHAR
STARTCHAR uni1E22
ENCODING 7714
SWIDTH 800 0
DWIDTH 10 0
BBX 10 12 0 0
BITMAP
0400
0400
0000
7BC0
3180
3180
3180
7F80
6300
6300
6300
F780
ENDCHAR
STARTCHAR uni1E23
ENCODING 7715
SWIDTH 629 0
DWIDTH 8 0
BBX 8 13 0 0
BITMAP
10
10
00
70
30
30
70
6C
76
66
EE
CD
CE
ENDCHAR
STARTCHAR uni1E24
ENCODING 7716
SWIDTH 800 0
DWIDTH 10 0
BBX 10 12 0 -3
BITMAP
7BC0
3180
3180
3180
7F80
6300
6300
6300
F780
0000
0800
0800
ENDCHAR
STARTCHAR uni1E25
ENCODING 7717
SWIDTH 629 0
DWIDTH 8 0
BBX 8 13 0 -3
BITMAP
70
30
30
70
6C
76
66
EE
CD
CE
00
10
10
ENDCHAR
STARTCHAR uni1E26
ENCODING 7718
SWIDTH 800 0
DWIDTH 10 0
BBX 10 12 0 0
BITMAP
0A00
0A00
0000
7BC0
3180
3180
3180
7F80
6300
6300
6300
F780
ENDCHAR
STARTCHAR uni1E27
ENCODING 7719
SWIDTH 629 0
DWIDTH 8 0
BBX 8 13 0 0
BITMAP
28
28
00
70
30
30
70
6C
76
66
EE
CD
CE
ENDCHAR
STARTCHAR uni1E28
ENCODING 7720
SWIDTH 800 0
DWIDTH 10 0
BBX 10 12 0 -3
BITMAP
7BC0
3180
3180
3180
7F80
6300
6300
6300
F780
0800
0C00
1800
ENDCHAR
STARTCHAR uni1E29
ENCODING 7721
SWIDTH 629 0
DWIDTH 8 0
BBX 8 13 0 -3
BITMAP
70
30
30
70
6C
76
66
EE
CD
CE
10
18
30
ENDCHAR
STARTCHAR uni1E2A
ENCODING 7722
SWIDTH 800 0
DWIDTH 10 0
BBX 10 12 0 -3
BITMAP
7BC0
3180
3180
3180
7F80
6300
6300
6300
F780
0000
1200
0C00
ENDCHAR
STARTCHAR uni1E2B
ENCODING 7723
SWIDTH 629 0
DWIDTH 8 0
BBX 8 13 0 -3
BITMAP
70
30
30
70
6C
76
66
EE
CD
CE
00
24
18
ENDCHAR
STARTCHAR uni1E2C
ENCODING 7724
SWIDTH 386 0
DWIDTH 5 0
BBX 6 12 -1 -3
BITMAP
3C
18
18
18
38
30
30
30
78
00
68
B0
ENDCHAR
STARTCHAR uni1E2D
ENCODING 7725
SWIDTH 339 0
DWIDTH 4 0
BBX 5 12 -1 -3
BITMAP
18
18
00
70
30
30
70
68
70
00
68
B0
ENDCHAR
STARTCHAR uni1E2E
ENCODING 7726
SWIDTH 386 0
DWIDTH 5 0
BBX 5 13 0 0
BITMAP
18
30
00
28
28
00
78
30
30
70
60
60
F0
ENDCHAR
STARTCHAR uni1E2F
ENCODING 7727
SWIDTH 339 0
DWIDTH 4 0
BBX 4 12 0 0
BITMAP
30
60
00
50
50
00
E0
60
E0
C0
D0
E0
ENDCHAR
STARTCHAR uni1E30
ENCODING 7728
SWIDTH 688 0
DWIDTH 9 0
BBX 9 12 0 0
BITMAP
0600
0C00
0000
7B80
3300
3200
3400
7C00
6E00
6600
6700
F380
ENDCHAR
STARTCHAR uni1E31
ENCODING 7729
SWIDTH 570 0
DWIDTH 7 0
BBX 7 13 0 0
BITMAP
18
30
00
70
30
70
60
64
6C
F0
F8
DE
CC
ENDCHAR
STARTCHAR uni1E32
ENCODING 7730
SWIDTH 688 0
DWIDTH 9 0
BBX 9 12 0 -3
BITMAP
7B80
3300
3200
3400
7C00
6E00
6600
6700
F380
0000
0800
0800
ENDCHAR
STARTCHAR uni1E33
ENCODING 7731
SWIDTH 570 0
DWIDTH 7 0
BBX 7 13 0 -3
BITMAP
70
30
70
60
64
6C
F0
F8
DE
CC
00
10
10
ENDCHAR
STARTCHAR uni1E34
ENCODING 7732
SWIDTH 688 0
DWIDTH 9 0
BBX 9 11 0 -2
BITMAP
7B80
3300
3200
3400
7C00
6E00
6600
6700
F380
0000
3C00
ENDCHAR
STARTCHAR uni1E35
ENCODING 7733
SWIDTH 570 0
DWIDTH 7 0
BBX 7 12 0 -2
BITMAP
70
30
70
60
64
6C
F0
F8
DE
CC
00
78
ENDCHAR
STARTCHAR uni1E36
ENCODING 7734
SWIDTH 586 0
DWIDTH 7 0
BBX 7 12 0 -3
BITMAP
78
30
30
30
70
60
60
62
FE
00
10
10
ENDCHAR
STARTCHAR uni1E37
ENCODING 7735
SWIDTH 327 0
DWIDTH 4 0
BBX 4 13 0 -3
BITMAP
70
30
70
60
60
60
E0
C0
D0
E0
00
40
40
ENDCHAR
STARTCHAR uni1E38
ENCODING 7736
SWIDTH 586 0
DWIDTH 7 0
BBX 7 14 0 -3
BITMAP
78
00
78
30
30
30
70
60
60
62
FE
00
10
10
ENDCHAR
STARTCHAR uni1E39
ENCODING 7737
SWIDTH 327 0
DWIDTH 4 0
BBX 4 15 0 -3
BITMAP
F0
00
70
30
70
60
60
60
E0
C0
D0
E0
00
40
40
ENDCHAR
STARTCHAR uni1E3A
ENCODING 7738
SWIDTH 586 0
DWIDTH 7 0
BBX 7 11 0 -2
BITMAP
78
30
30
30
70
60
60
62
FE
00
78
ENDCHAR
STARTCHAR uni1E3B
ENCODING 7739
SWIDTH 327 0
DWIDTH 4 0
BBX 4 12 0 -2
BITMAP
70
30
70
60
60
60
E0
C0
D0
E0
00
F0
ENDCHAR
STARTCHAR uni1E3C
ENCODING 7740
SWIDTH 586 0
DWIDTH 7 0
BBX 7 12 0 -3
BITMAP
78
30
30
30
70
60
60
62
FE
00
30
58
ENDCHAR
STARTCHAR uni1E3D
ENCODING 7741
SWIDTH 327 0
DWIDTH 4 0
BBX 4 13 0 -3
BITMAP
70
30
70
60
60
60
E0
C0
D0
E0
00
60
B0
ENDCHAR
STARTCHAR uni1E3E
ENCODING 7742
SWIDTH 921 0
DWIDTH 12 0
BBX 12 12 0 0
BITMAP
0300
0600
0000
7070
30E0
38E0
3960
7EE0
5EC0
4CC0
4CC0
E9E0
ENDCHAR
STARTCHAR uni1E3F
ENCODING 7743
SWIDTH 914 0
DWIDTH 12 0
BBX 12 9 0 0
BITMAP
0600
0C00
0000
ECC0
7760
6660
EEE0
CCD0
CCE0
ENDCHAR
STARTCHAR uni1E40
ENCODING 7744
SWIDTH 921 0
DWIDTH 12 0
BBX 12 12 0 0
BITMAP
0200
0200
0000
7070
30E0
38E0
3960
7EE0
5EC0
4CC0
4CC0
E9E0
ENDCHAR
STARTCHAR uni1E41
ENCODING 7745
SWIDTH 914 0
DWIDTH 12 0
BBX 12 9 0 0
BITMAP
0400
0400
0000
ECC0
7760
6660
EEE0
CCD0
CCE0
ENDCHAR
STARTCHAR uni1E42
ENCODING 7746
SWIDTH 921 0
DWIDTH 12 0
BBX 12 12 0 -3
BITMAP
7070
30E0
38E0
3960
7EE0
5EC0
4CC0
4CC0
E9E0
0000
0400
0400
ENDCHAR
STARTCHAR uni1E43
ENCODING 7747
SWIDTH 914 0
DWIDTH 12 0
BBX 12 9 0 -3
BITMAP
ECC0
7760
6660
EEE0
CCD0
CCE0
0000
0400
0400
ENDCHAR
STARTCHAR uni1E44
ENCODING 7748
SWIDTH 741 0
DWIDTH 9 0
BBX 10 12 -1 0
BITMAP
0400
0400
0000
71C0
3880
3880
2C80
6D00
4700
4700
4300
E300
ENDCHAR
STARTCHAR uni1E45
ENCODING 7749
SWIDTH 635 0
DWIDTH 8 0
BBX 8 9 0 0
BITMAP
10
10
00
EC
76
66
EE
CD
CE
ENDCHAR
STARTCHAR uni1E46
ENCODING 7750
SWIDTH 741 0
DWIDTH 9 0
BBX 10 12 -1 -3
BITMAP
71C0
3880
3880
2C80
6D00
4700
4700
4300
E300
0000
0800
0800
ENDCHAR
STARTCHAR uni1E47
ENCODING 7751
SWIDTH 635 0
DWIDTH 8 0
BBX 8 9 0 -3
BITMAP
EC
76
66
EE
CD
CE
00
10
10
ENDCHAR
STARTCHAR uni1E48
ENCODING 7752
SWIDTH 741 0
DWIDTH 9 0
BBX 10 11 -1 -2
BITMAP
71C0
3880
3880
2C80
6D00
4700
4700
4300
E300
0000
1E00
ENDCHAR
STARTCHAR uni1E49
ENCODING 7753
SWIDTH 635 0
DWIDTH 8 0
BBX 8 8 0 -2
BITMAP
EC
76
66
EE
CD
CE
00
3C
ENDCHAR
STARTCHAR uni1E4A
ENCODING 7754
SWIDTH 741 0
DWIDTH 9 0
BBX 10 12 -1 -3
BITMAP
71C0
3880
3880
2C80
6D00
4700
4700
4300
E300
0000
0C00
1600
ENDCHAR
STARTCHAR uni1E4B
ENCODING 7755
SWIDTH 635 0
DWIDTH 8 0
BBX 8 9 0 -3
BITMAP
EC
76
66
EE
CD
CE
00
18
2C
ENDCHAR
STARTCHAR uni1E4C
ENCODING 7756
SWIDTH 761 0
DWIDTH 10 0
BBX 8 13 1 0
BITMAP
06
0C
00
0D
16
00
3E
63
E3
C3
C7
C6
7C
ENDCHAR
STARTCHAR uni1E4D
ENCODING 7757
SWIDTH 562 0
DWIDTH 7 0
BBX 6 12 0 0
BITMAP
18
30
00
34
58
00
38
6C
EC
DC
D8
70
ENDCHAR
STARTCHAR uni1E4E
ENCODING 7758
SWIDTH 761 0
DWIDTH 10 0
BBX 8 13 1 0
BITMAP
0A
0A
00
0D
16
00
3E
63
E3
C3
C7
C6
7C
ENDCHAR
STARTCHAR uni1E4F
ENCODING 7759
SWIDTH 562 0
DWIDTH 7 0
BBX 6 12 0 0
BITMAP
28
28
00
34
58
00
38
6C
EC
DC
D8
70
ENDCHAR
STARTCHAR uni1E50
ENCODING 7760
SWIDTH 761 0
DWIDTH 10 0
BBX 8 14 1 0
BITMAP
18
0C
00
3C
00
1E
73
63
E3
E7
C7
C6
CE
78
ENDCHAR
STARTCHAR uni1E51
ENCODING 7761
SWIDTH 562 0
DWIDTH 7 0
BBX 6 11 0 0
BITMAP
60
30
00
78
00
38
6C
EC
DC
D8
70
ENDCHAR
STARTCHAR uni1E52
ENCODING 7762
SWIDTH 761 0
DWIDTH 10 0
BBX 8 14 1 0
BITMAP
0C
18
00
3C
00
1E
73
63
E3
E7
C7
C6
CE
78
ENDCHAR
STARTCHAR uni1E53
ENCODING 7763
SWIDTH 562 0
DWIDTH 7 0
BBX 6 11 0 0
BITMAP
18
30
00
78
00
38
6C
EC
DC
D8
70
ENDCHAR
STARTCHAR uni1E54
ENCODING 7764
SWIDTH 660 0
DWIDTH 8 0
BBX 8 12 0 0
BITMAP
0C
18
00
7E
33
33
33
76
7C
60
60
F0
ENDCHAR
STARTCHAR uni1E55
ENCODING 7765
SWIDTH 606 0
DWIDTH 8 0
BBX 8 12 -1 -3
BITMAP
0C
18
00
76
3B
73
67
76
6C
E0
C0
C0
ENDCHAR
STARTCHAR uni1E56
ENCODING 7766
SWIDTH 660 0
DWIDTH 8 0
BBX 8 12 0 0
BITMAP
08
08
00
7E
33
33
33
76
7C
60
60
F0
ENDCHAR
STARTCHAR uni1E57
ENCODING 7767
SWIDTH 606 0
DWIDTH 8 0
BBX 8 12 -1 -3
BITMAP
08
08
00
76
3B
73
67
76
6C
E0
C0
C0
ENDCHAR
STARTCHAR uni1E58
ENCODING 7768
SWIDTH 681 0
DWIDTH 9 0
BBX 9 12 0 0
BITMAP
0800
0800
0000
7E00
3300
3300
3600
7E00
6600
6700
6300
F380
ENDCHAR
STARTCHAR uni1E59
ENCODING 7769
SWIDTH 440 0
DWIDTH 6 0
BBX 6 9 0 0
BITMAP
10
10
00
EC
7C
60
E0
C0
C0
ENDCHAR
STARTCHAR uni1E5A
ENCODING 7770
SWIDTH 681 0
DWIDTH 9 0
BBX 9 12 0 -3
BITMAP
7E00
3300
3300
3600
7E00
6600
6700
6300
F380
0000
0800
0800
ENDCHAR
STARTCHAR uni1E5B
ENCODING 7771
SWIDTH 440 0
DWIDTH 6 0
BBX 6 9 0 -3
BITMAP
EC
7C
60
E0
C0
C0
00
40
40
ENDCHAR
STARTCHAR uni1E5C
ENCODING 7772
SWIDTH 681 0
DWIDTH 9 0
BBX 9 14 0 -3
BITMAP
1E00
0000
7E00
3300
3300
3600
7E00
6600
6700
6300
F380
0000
0800
0800
ENDCHAR
STARTCHAR uni1E5D
ENCODING 7773
SWIDTH 440 0
DWIDTH 6 0
BBX 6 11 0 -3
BITMAP
78
00
EC
7C
60
E0
C0
C0
00
40
40
ENDCHAR
STARTCHAR uni1E5E
ENCODING 7774
SWIDTH 681 0
DWIDTH 9 0
BBX 9 11 0 -2
BITMAP
7E00
3300
3300
3600
7E00
6600
6700
6300
F380
0000
1E00
ENDCHAR
STARTCHAR uni1E5F
ENCODING 7775
SWIDTH 440 0
DWIDTH 6 0
BBX 6 8 0 -2
BITMAP
EC
7C
60
E0
C0
C0
00
F0
ENDCHAR
STARTCHAR uni1E60
ENCODING 7776
SWIDTH 551 0
DWIDTH 7 0
BBX 7 12 0 0
BITMAP
10
10
00
3E
66
62
70
38
1C
8C
CC
F8
ENDCHAR
STARTCHAR uni1E61
ENCODING 7777
SWIDTH 417 0
DWIDTH 5 0
BBX 6 9 -1 0
BITMAP
10
10
00
1C
34
30
18
D8
70
ENDCHAR
STARTCHAR uni1E62
ENCODING 7778
SWIDTH 551 0
DWIDTH 7 0
BBX 7 12 0 -3
BITMAP
3E
66
62
70
38
1C
8C
CC
F8
00
10
10
ENDCHAR
STARTCHAR uni1E63
ENCODING 7779
SWIDTH 417 0
DWIDTH 5 0
BBX 6 9 -1 -3
BITMAP
1C
34
30
18
D8
70
00
20
20
ENDCHAR
STARTCHAR uni1E64
ENCODING 7780
SWIDTH 551 0
DWIDTH 7 0
BBX 7 15 0 0
BITMAP
08
08
00
0C
18
00
3E
66
62
70
38
1C
8C
CC
F8
ENDCHAR
STARTCHAR uni1E65
ENCODING 7781
SWIDTH 417 0
DWIDTH 5 0
BBX 6 12 -1 0
BITMAP
08
08
00
0C
18
00
1C
34
30
18
D8
70
ENDCHAR
STARTCHAR uni1E66
ENCODING 7782
SWIDTH 551 0
DWIDTH 7 0
BBX 7 13 0 0
BITMAP
10
10
00
34
18
00
3E
62
70
38
1C
8C
F8
ENDCHAR
STARTCHAR uni1E67
ENCODING 7783
SWIDTH 417 0
DWIDTH 5 0
BBX 6 12 -1 0
BITMAP
10
10
00
34
18
00
1C
34
30
18
D8
70
ENDCHAR
STARTCHAR uni1E68
ENCODING 7784
SWIDTH 551 0
DWIDTH 7 0
BBX 7 15 0 -3
BITMAP
10
10
00
3E
66
62
70
38
1C
8C
CC
F8
00
10
10
ENDCHAR
STARTCHAR uni1E69
ENCODING 7785
SWIDTH 417 0
DWIDTH 5 0
BBX 6 12 -1 -3
BITMAP
10
10
00
1C
34
30
18
D8
70
00
20
20
ENDCHAR
STARTCHAR uni1E6A
ENCODING 7786
SWIDTH 616 0
DWIDTH 8 0
BBX 8 12 0 0
BITMAP
08
08
00
FF
DB
99
18
38
30
30
30
78
ENDCHAR
STARTCHAR uni1E6B
ENCODING 7787
SWIDTH 359 0
DWIDTH 5 0
BBX 4 11 0 0
BITMAP
20
20
00
20
60
F0
60
E0
C0
D0
E0
ENDCHAR
STARTCHAR uni1E6C
ENCODING 7788
SWIDTH 616 0
DWIDTH 8 0
BBX 8 12 0 -3
BITMAP
FF
DB
99
18
38
30
30
30
78
00
10
10
ENDCHAR
STARTCHAR uni1E6D
ENCODING 7789
SWIDTH 359 0
DWIDTH 5 0
BBX 4 11 0 -3
BITMAP
20
60
F0
60
E0
C0
D0
E0
00
40
40
ENDCHAR
STARTCHAR uni1E6E
ENCODING 7790
SWIDTH 616 0
DWIDTH 8 0
BBX 8 11 0 -2
BITMAP
FF
DB
99
18
38
30
30
30
78
00
78
ENDCHAR
STARTCHAR uni1E6F
ENCODING 7791
SWIDTH 359 0
DWIDTH 5 0
BBX 4 10 0 -2
BITMAP
20
60
F0
60
E0
C0
D0
E0
00
F0
ENDCHAR
STARTCHAR uni1E70
ENCODING 7792
SWIDTH 616 0
DWIDTH 8 0
BBX 8 12 0 -3
BITMAP
FF
DB
99
18
38
30
30
30
78
00
30
58
ENDCHAR
STARTCHAR uni1E71
ENCODING 7793
SWIDTH 359 0
DWIDTH 5 0
BBX 4 11 0 -3
BITMAP
20
60
F0
60
E0
C0
D0
E0
00
60
B0
ENDCHAR
STARTCHAR uni1E72
ENCODING 7794
SWIDTH 776 0
DWIDTH 10 0
BBX 9 12 1 -3
BITMAP
F780
6300
6300
6300
E700
C600
C600
CE00
7C00
0000
2800
2800
ENDCHAR
STARTCHAR uni1E73
ENCODING 7795
SWIDTH 634 0
DWIDTH 8 0
BBX 8 9 0 -3
BITMAP
E6
66
EE
CC
DD
6E
00
28
28
ENDCHAR
STARTCHAR uni1E74
ENCODING 7796
SWIDTH 776 0
DWIDTH 10 0
BBX 9 12 1 -3
BITMAP
F780
6300
6300
6300
E700
C600
C600
CE00
7C00
0000
3400
5800
ENDCHAR
STARTCHAR uni1E75
ENCODING 7797
SWIDTH 634 0
DWIDTH 8 0
BBX 8 9 0 -3
BITMAP
E6
66
EE
CC
DD
6E
00
34
58
ENDCHAR
STARTCHAR uni1E76
ENCODING 7798
SWIDTH 776 0
DWIDTH 10 0
BBX 9 12 1 -3
BITMAP
F780
6300
6300
6300
E700
C600
C600
CE00
7C00
0000
1800
2C00
ENDCHAR
STARTCHAR uni1E77
ENCODING 7799
SWIDTH 634 0
DWIDTH 8 0
BBX 8 9 0 -3
BITMAP
E6
66
EE
CC
DD
6E
00
18
2C
ENDCHAR
STARTCHAR uni1E78
ENCODING 7800
SWIDTH 776 0
DWIDTH 10 0
BBX 9 15 1 0
BITMAP
0C00
1800
0000
1A00
2C00
0000
F780
6300
6300
6300
E700
C600
C600
CE00
7C00
ENDCHAR
STARTCHAR uni1E79
ENCODING 7801
SWIDTH 634 0
DWIDTH 8 0
BBX 8 12 0 0
BITMAP
0C
18
00
34
58
00
E6
66
EE
CC
DD
6E
ENDCHAR
STARTCHAR uni1E7A
ENCODING 7802
SWIDTH 776 0
DWIDTH 10 0
BBX 9 14 1 0
BITMAP
1400
1400
0000
1E00
0000
F780
6300
6300
6300
E700
C600
C600
CE00
7C00
ENDCHAR
STARTCHAR uni1E7B
ENCODING 7803
SWIDTH 634 0
DWIDTH 8 0
BBX 8 11 0 0
BITMAP
28
28
00
3C
00
E6
66
EE
CC
DD
6E
ENDCHAR
STARTCHAR uni1E7C
ENCODING 7804
SWIDTH 630 0
DWIDTH 8 0
BBX 8 12 0 0
BITMAP
1A
2C
00
F7
62
62
64
74
38
38
30
30
ENDCHAR
STARTCHAR uni1E7D
ENCODING 7805
SWIDTH 518 0
DWIDTH 7 0
BBX 6 9 0 0
BITMAP
34
58
00
EC
6C
EC
C8
D0
60
ENDCHAR
STARTCHAR uni1E7E
ENCODING 7806
SWIDTH 630 0
DWIDTH 8 0
BBX 8 12 0 -3
BITMAP
F7
62
62
64
74
38
38
30
30
00
10
10
ENDCHAR
STARTCHAR uni1E7F
ENCODING 7807
SWIDTH 518 0
DWIDTH 7 0
BBX 6 9 0 -3
BITMAP
EC
6C
EC
C8
D0
60
00
20
20
ENDCHAR
STARTCHAR Wgrave
ENCODING 7808
SWIDTH 920 0
DWIDTH 12 0
BBX 13 12 0 0
BITMAP
0C00
0600
0000
F338
6310
6720
6720
6B40
6B40
7380
7380
6300
ENDCHAR
STARTCHAR wgrave
ENCODING 7809
SWIDTH 795 0
DWIDTH 10 0
BBX 10 9 0 0
BITMAP
1800
0C00
0000
E6C0
66C0
ECC0
CC80
DD00
6600
ENDCHAR
STARTCHAR Wacute
ENCODING 7810
SWIDTH 920 0
DWIDTH 12 0
BBX 13 12 0 0
BITMAP
0300
0600
0000
F338
6310
6720
6720
6B40
6B40
7380
7380
6300
ENDCHAR
STARTCHAR wacute
ENCODING 7811
SWIDTH 795 0
DWIDTH 10 0
BBX 10 9 0 0
BITMAP
0600
0C00
0000
E6C0
66C0
ECC0
CC80
DD00
6600
ENDCHAR
STARTCHAR Wdieresis
ENCODING 7812
SWIDTH 920 0
DWIDTH 12 0
BBX 13 12 0 0
BITMAP
0500
0500
0000
F338
6310
6720
6720
6B40
6B40
7380
7380
6300
ENDCHAR
STARTCHAR wdieresis
ENCODING 7813
SWIDTH 795 0
DWIDTH 10 0
BBX 10 9 0 0
BITMAP
0A00
0A00
0000
E6C0
66C0
ECC0
CC80
DD00
6600
ENDCHAR
STARTCHAR uni1E86
ENCODING 7814
SWIDTH 920 0
DWIDTH 12 0
BBX 13 12 0 0
BITMAP
0200
0200
0000
F338
6310
6720
6720
6B40
6B40
7380
7380
6300
ENDCHAR
STARTCHAR uni1E87
ENCODING 7815
SWIDTH 795 0
DWIDTH 10 0
BBX 10 9 0 0
BITMAP
0400
0400
0000
E6C0
66C0
ECC0
CC80
DD00
6600
ENDCHAR
STARTCHAR uni1E88
ENCODING 7816
SWIDTH 920 0
DWIDTH 12 0
BBX 13 12 0 -3
BITMAP
F338
6310
6720
6720
6B40
6B40
7380
7380
6300
0000
0400
0400
ENDCHAR
STARTCHAR uni1E89
ENCODING 7817
SWIDTH 795 0
DWIDTH 10 0
BBX 10 9 0 -3
BITMAP
E6C0
66C0
ECC0
CC80
DD00
6600
0000
0800
0800
ENDCHAR
STARTCHAR uni1E8A
ENCODING 7818
SWIDTH 630 0
DWIDTH 8 0
BBX 8 12 0 0
BITMAP
08
08
00
7B
32
34
38
18
1C
2C
4C
DE
ENDCHAR
STARTCHAR uni1E8B
ENCODING 7819
SWIDTH 516 0
DWIDTH 6 0
BBX 6 9 0 0
BITMAP
10
10
00
64
BC
30
30
F4
98
ENDCHAR
STARTCHAR uni1E8C
ENCODING 7820
SWIDTH 630 0
DWIDTH 8 0
BBX 8 12 0 0
BITMAP
14
14
00
7B
32
34
38
18
1C
2C
4C
DE
ENDCHAR
STARTCHAR uni1E8D
ENCODING 7821
SWIDTH 516 0
DWIDTH 6 0
BBX 6 9 0 0
BITMAP
28
28
00
64
BC
30
30
F4
98
ENDCHAR
STARTCHAR uni1E8E
ENCODING 7822
SWIDTH 622 0
DWIDTH 8 0
BBX 8 12 1 0
BITMAP
10
10
00
F7
66
64
68
30
70
60
60
F0
ENDCHAR
STARTCHAR uni1E8F
ENCODING 7823
SWIDTH 489 0
DWIDTH 6 0
BBX 7 12 -1 -3
BITMAP
10
10
00
76
36
34
38
38
30
30
A0
C0
ENDCHAR
STARTCHAR uni1E90
ENCODING 7824
SWIDTH 618 0
DWIDTH 8 0
BBX 8 12 0 0
BITMAP
18
2C
00
7F
4E
0C
18
38
30
60
E2
FE
ENDCHAR
STARTCHAR uni1E91
ENCODING 7825
SWIDTH 466 0
DWIDTH 6 0
BBX 5 9 0 0
BITMAP
60
B0
00
78
F0
20
40
F8
B0
ENDCHAR
STARTCHAR uni1E92
ENCODING 7826
SWIDTH 618 0
DWIDTH 8 0
BBX 8 12 0 -3
BITMAP
7F
4E
0C
18
38
30
60
E2
FE
00
10
10
ENDCHAR
STARTCHAR uni1E93
ENCODING 7827
SWIDTH 466 0
DWIDTH 6 0
BBX 5 9 0 -3
BITMAP
78
F0
20
40
F8
B0
00
20
20
ENDCHAR
STARTCHAR uni1E94
ENCODING 7828
SWIDTH 618 0
DWIDTH 8 0
BBX 8 11 0 -2
BITMAP
7F
4E
0C
18
38
30
60
E2
FE
00
78
ENDCHAR
STARTCHAR uni1E95
ENCODING 7829
SWIDTH 466 0
DWIDTH 6 0
BBX 5 8 0 -2
BITMAP
78
F0
20
40
F8
B0
00
F0
ENDCHAR
STARTCHAR uni1E96
ENCODING 7830
SWIDTH 629 0
DWIDTH 8 0
BBX 8 12 0 -2
BITMAP
70
30
30
70
6C
76
66
EE
CD
CE
00
3C
ENDCHAR
STARTCHAR uni1E97
ENCODING 7831
SWIDTH 359 0
DWIDTH 5 0
BBX 4 11 0 0
BITMAP
50
50
00
20
60
F0
60
E0
C0
D0
E0
ENDCHAR
STARTCHAR uni1E98
ENCODING 7832
SWIDTH 795 0
DWIDTH 10 0
BBX 10 10 0 0
BITMAP
0C00
1200
0C00
0000
E6C0
66C0
ECC0
CC80
DD00
6600
ENDCHAR
STARTCHAR uni1E99
ENCODING 7833
SWIDTH 489 0
DWIDTH 6 0
BBX 7 13 -1 -3
BITMAP
18
24
18
00
76
36
34
38
38
30
30
A0
C0
ENDCHAR
STARTCHAR uni1EA0
ENCODING 7840
SWIDTH 634 0
DWIDTH 8 0
BBX 9 12 -1 -3
BITMAP
0600
0E00
0E00
1600
1300
3F00
2300
4300
E780
0000
0800
0800
ENDCHAR
STARTCHAR uni1EA1
ENCODING 7841
SWIDTH 596 0
DWIDTH 7 0
BBX 7 9 0 -3
BITMAP
3C
6C
CC
D8
DA
6C
00
10
10
ENDCHAR
STARTCHAR uni1EA4
ENCODING 7844
SWIDTH 634 0
DWIDTH 8 0
BBX 9 13 -1 0
BITMAP
0600
0C00
0000
0600
0B00
0000
0600
0E00
1600
1300
3F00
4300
E780
ENDCHAR
STARTCHAR uni1EA5
ENCODING 7845
SWIDTH 596 0
DWIDTH 7 0
BBX 7 12 0 0
BITMAP
0C
18
00
0C
16
00
3C
6C
CC
D8
DA
6C
ENDCHAR
STARTCHAR uni1EA6
ENCODING 7846
SWIDTH 634 0
DWIDTH 8 0
BBX 9 13 -1 0
BITMAP
0C00
0600
0000
0600
0B00
0000
0600
0E00
1600
1300
3F00
4300
E780
ENDCHAR
STARTCHAR uni1EA7
ENCODING 7847
SWIDTH 596 0
DWIDTH 7 0
BBX 7 12 0 0
BITMAP
18
0C
00
0C
16
00
3C
6C
CC
D8
DA
6C
ENDCHAR
STARTCHAR uni1EAA
ENCODING 7850
SWIDTH 634 0
DWIDTH 8 0
BBX 9 13 -1 0
BITMAP
0D00
1600
0000
0600
0B00
0000
0600
0E00
1600
1300
3F00
4300
E780
ENDCHAR
STARTCHAR uni1EAB
ENCODING 7851
SWIDTH 596 0
DWIDTH 7 0
BBX 7 12 0 0
BITMAP
1A
2C
00
0C
16
00
3C
6C
CC
D8
DA
6C
ENDCHAR
STARTCHAR uni1EAC
ENCODING 7852
SWIDTH 634 0
DWIDTH 8 0
BBX 9 15 -1 -3
BITMAP
0C00
1600
0000
0600
0E00
0E00
1600
1300
3F00
2300
4300
E780
0000
0800
0800
ENDCHAR
STARTCHAR uni1EAD
ENCODING 7853
SWIDTH 596 0
DWIDTH 7 0
BBX 7 12 0 -3
BITMAP
30
58
00
3C
6C
CC
D8
DA
6C
00
10
10
ENDCHAR
STARTCHAR uni1EAE
ENCODING 7854
SWIDTH 634 0
DWIDTH 8 0
BBX 9 15 -1 0
BITMAP
0600
0C00
0000
1200
0C00
0000
0600
0E00
0E00
1600
1300
3F00
2300
4300
E780
ENDCHAR
STARTCHAR uni1EAF
ENCODING 7855
SWIDTH 596 0
DWIDTH 7 0
BBX 7 12 0 0
BITMAP
0C
18
00
24
18
00
3C
6C
CC
D8
DA
6C
ENDCHAR
STARTCHAR uni1EB0
ENCODING 7856
SWIDTH 634 0
DWIDTH 8 0
BBX 9 15 -1 0
BITMAP
1800
0C00
0000
1200
0C00
0000
0600
0E00
0E00
1600
1300
3F00
2300
4300
E780
ENDCHAR
STARTCHAR uni1EB1
ENCODING 7857
SWIDTH 596 0
DWIDTH 7 0
BBX 7 12 0 0
BITMAP
30
18
00
24
18
00
3C
6C
CC
D8
DA
6C
ENDCHAR
STARTCHAR uni1EB4
ENCODING 7860
SWIDTH 634 0
DWIDTH 8 0
BBX 9 15 -1 0
BITMAP
0D00
1600
0000
1200
0C00
0000
0600
0E00
0E00
1600
1300
3F00
2300
4300
E780
ENDCHAR
STARTCHAR uni1EB5
ENCODING 7861
SWIDTH 596 0
DWIDTH 7 0
BBX 7 12 0 0
BITMAP
1A
2C
00
24
18
00
3C
6C
CC
D8
DA
6C
ENDCHAR
STARTCHAR uni1EB6
ENCODING 7862
SWIDTH 634 0
DWIDTH 8 0
BBX 9 15 -1 -3
BITMAP
1200
0C00
0000
0600
0E00
0E00
1600
1300
3F00
2300
4300
E780
0000
0800
0800
ENDCHAR
STARTCHAR uni1EB7
ENCODING 7863
SWIDTH 596 0
DWIDTH 7 0
BBX 7 12 0 -3
BITMAP
24
18
00
3C
6C
CC
D8
DA
6C
00
10
10
ENDCHAR
STARTCHAR uni1EB8
ENCODING 7864
SWIDTH 622 0
DWIDTH 8 0
BBX 8 12 0 -3
BITMAP
7F
33
31
34
7C
64
62
66
FE
00
10
10
ENDCHAR
STARTCHAR uni1EB9
ENCODING 7865
SWIDTH 476 0
DWIDTH 6 0
BBX 6 9 0 -3
BITMAP
38
6C
F8
C0
C8
70
00
20
20
ENDCHAR
STARTCHAR uni1EBC
ENCODING 7868
SWIDTH 622 0
DWIDTH 8 0
BBX 8 12 0 0
BITMAP
1A
2C
00
7F
33
31
34
7C
64
62
66
FE
ENDCHAR
STARTCHAR uni1EBD
ENCODING 7869
SWIDTH 476 0
DWIDTH 6 0
BBX 6 9 0 0
BITMAP
34
58
00
38
6C
F8
C0
C8
70
ENDCHAR
STARTCHAR uni1EBE
ENCODING 7870
SWIDTH 622 0
DWIDTH 8 0
BBX 8 13 0 0
BITMAP
06
0C
00
0C
16
00
7F
31
30
7C
60
62
FE
ENDCHAR
STARTCHAR uni1EBF
ENCODING 7871
SWIDTH 476 0
DWIDTH 6 0
BBX 6 12 0 0
BITMAP
0C
18
00
18
2C
00
38
6C
F8
C0
C8
70
ENDCHAR
STARTCHAR uni1EC0
ENCODING 7872
SWIDTH 622 0
DWIDTH 8 0
BBX 8 13 0 0
BITMAP
18
0C
00
0C
16
00
7F
31
30
7C
60
62
FE
ENDCHAR
STARTCHAR uni1EC1
ENCODING 7873
SWIDTH 476 0
DWIDTH 6 0
BBX 6 12 0 0
BITMAP
30
18
00
18
2C
00
38
6C
F8
C0
C8
70
ENDCHAR
STARTCHAR uni1EC4
ENCODING 7876
SWIDTH 622 0
DWIDTH 8 0
BBX 8 13 0 0
BITMAP
1A
2C
00
0C
16
00
7F
31
30
7C
60
62
FE
ENDCHAR
STARTCHAR uni1EC5
ENCODING 7877
SWIDTH 476 0
DWIDTH 6 0
BBX 6 12 0 0
BITMAP
34
58
00
18
2C
00
38
6C
F8
C0
C8
70
ENDCHAR
STARTCHAR uni1EC6
ENCODING 7878
SWIDTH 622 0
DWIDTH 8 0
BBX 8 15 0 -3
BITMAP
18
2C
00
7F
33
31
34
7C
64
62
66
FE
00
10
10
ENDCHAR
STARTCHAR uni1EC7
ENCODING 7879
SWIDTH 476 0
DWIDTH 6 0
BBX 6 12 0 -3
BITMAP
30
58
00
38
6C
F8
C0
C8
70
00
20
20
ENDCHAR
STARTCHAR uni1ECA
ENCODING 7882
SWIDTH 386 0
DWIDTH 5 0
BBX 5 12 0 -3
BITMAP
78
30
30
30
70
60
60
60
F0
00
20
20
ENDCHAR
STARTCHAR uni1ECB
ENCODING 7883
SWIDTH 339 0
DWIDTH 4 0
BBX 4 12 0 -3
BITMAP
30
30
00
E0
60
60
E0
D0
E0
00
40
40
ENDCHAR
STARTCHAR uni1ECC
ENCODING 7884
SWIDTH 761 0
DWIDTH 10 0
BBX 8 12 1 -3
BITMAP
1E
73
63
E3
E7
C7
C6
CE
78
00
10
10
ENDCHAR
STARTCHAR uni1ECD
ENCODING 7885
SWIDTH 562 0
DWIDTH 7 0
BBX 6 9 0 -3
BITMAP
38
6C
EC
DC
D8
70
00
20
20
ENDCHAR
STARTCHAR uni1ED0
ENCODING 7888
SWIDTH 761 0
DWIDTH 10 0
BBX 8 13 1 0
BITMAP
06
0C
00
0C
16
00
3E
63
E3
C3
C7
C6
7C
ENDCHAR
STARTCHAR uni1ED1
ENCODING 7889
SWIDTH 562 0
DWIDTH 7 0
BBX 6 12 0 0
BITMAP
0C
18
00
18
2C
00
38
6C
EC
DC
D8
70
ENDCHAR
STARTCHAR uni1ED2
ENCODING 7890
SWIDTH 761 0
DWIDTH 10 0
BBX 8 13 1 0
BITMAP
18
0C
00
0C
16
00
3E
63
E3
C3
C7
C6
7C
ENDCHAR
STARTCHAR uni1ED3
ENCODING 7891
SWIDTH 562 0
DWIDTH 7 0
BBX 6 12 0 0
BITMAP
30
18
00
18
2C
00
38
6C
EC
DC
D8
70
ENDCHAR
STARTCHAR uni1ED6
ENCODING 7894
SWIDTH 761 0
DWIDTH 10 0
BBX 8 13 1 0
BITMAP
1A
2C
00
0C
16
00
3E
63
E3
C3
C7
C6
7C
ENDCHAR
STARTCHAR uni1ED7
ENCODING 7895
SWIDTH 562 0
DWIDTH 7 0
BBX 6 12 0 0
BITMAP
34
58
00
18
2C
00
38
6C
EC
DC
D8
70
ENDCHAR
STARTCHAR uni1ED8
ENCODING 7896
SWIDTH 761 0
DWIDTH 10 0
BBX 8 15 1 -3
BITMAP
18
2C
00
1E
73
63
E3
E7
C7
C6
CE
78
00
10
10
ENDCHAR
STARTCHAR uni1ED9
ENCODING 7897
SWIDTH 562 0
DWIDTH 7 0
BBX 6 12 0 -3
BITMAP
30
58
00
38
6C
EC
DC
D8
70
00
20
20
ENDCHAR
STARTCHAR uni1EDA
ENCODING 7898
SWIDTH 761 0
DWIDTH 10 0
BBX 11 12 1 0
BITMAP
0300
0600
0000
1E60
7360
6340
E380
E700
C700
C600
CE00
7800
ENDCHAR
STARTCHAR uni1EDB
ENCODING 7899
SWIDTH 562 0
DWIDTH 7 0
BBX 9 9 0 0
BITMAP
0600
0C00
0000
3980
6D80
ED00
DE00
D800
7000
ENDCHAR
STARTCHAR uni1EDC
ENCODING 7900
SWIDTH 761 0
DWIDTH 10 0
BBX 11 12 1 0
BITMAP
0C00
0600
0000
1E60
7360
6340
E380
E700
C700
C600
CE00
7800
ENDCHAR
STARTCHAR uni1EDD
ENCODING 7901
SWIDTH 562 0
DWIDTH 7 0
BBX 9 9 0 0
BITMAP
1800
0C00
0000
3980
6D80
ED00
DE00
D800
7000
ENDCHAR
STARTCHAR uni1EE0
ENCODING 7904
SWIDTH 761 0
DWIDTH 10 0
BBX 11 12 1 0
BITMAP
0680
0B00
0000
1E60
7360
6340
E380
E700
C700
C600
CE00
7800
ENDCHAR
STARTCHAR uni1EE1
ENCODING 7905
SWIDTH 562 0
DWIDTH 7 0
BBX 9 9 0 0
BITMAP
0D00
1600
0000
3980
6D80
ED00
DE00
D800
7000
ENDCHAR
STARTCHAR uni1EE2
ENCODING 7906
SWIDTH 761 0
DWIDTH 10 0
BBX 11 12 1 -3
BITMAP
1E60
7360
6340
E380
E700
C700
C600
CE00
7800
0000
0800
0800
ENDCHAR
STARTCHAR uni1EE3
ENCODING 7907
SWIDTH 562 0
DWIDTH 7 0
BBX 9 9 0 -3
BITMAP
3980
6D80
ED00
DE00
D800
7000
0000
1000
1000
ENDCHAR
STARTCHAR uni1EE4
ENCODING 7908
SWIDTH 776 0
DWIDTH 10 0
BBX 9 12 1 -3
BITMAP
F780
6300
6300
6300
E700
C600
C600
CE00
7C00
0000
1000
1000
ENDCHAR
STARTCHAR uni1EE5
ENCODING 7909
SWIDTH 634 0
DWIDTH 8 0
BBX 8 9 0 -3
BITMAP
E6
66
EE
CC
DD
6E
00
10
10
ENDCHAR
STARTCHAR uni1EE8
ENCODING 7912
SWIDTH 776 0
DWIDTH 10 0
BBX 11 12 1 0
BITMAP
0300
0600
0000
F7E0
6360
6340
6380
E700
C600
C600
CE00
7C00
ENDCHAR
STARTCHAR uni1EE9
ENCODING 7913
SWIDTH 634 0
DWIDTH 8 0
BBX 11 9 0 0
BITMAP
0600
0C00
0000
E660
6660
EE40
CC80
DD00
6E00
ENDCHAR
STARTCHAR uni1EEA
ENCODING 7914
SWIDTH 776 0
DWIDTH 10 0
BBX 11 12 1 0
BITMAP
0C00
0600
0000
F7E0
6360
6340
6380
E700
C600
C600
CE00
7C00
ENDCHAR
STARTCHAR uni1EEB
ENCODING 7915
SWIDTH 634 0
DWIDTH 8 0
BBX 11 9 0 0
BITMAP
0C00
0600
0000
E660
6660
EE40
CC80
DD00
6E00
ENDCHAR
STARTCHAR uni1EEE
ENCODING 7918
SWIDTH 776 0
DWIDTH 10 0
BBX 11 12 1 0
BITMAP
0D00
1600
0000
F7E0
6360
6340
6380
E700
C600
C600
CE00
7C00
ENDCHAR
STARTCHAR uni1EEF
ENCODING 7919
SWIDTH 634 0
DWIDTH 8 0
BBX 11 9 0 0
BITMAP
0D00
1600
0000
E660
6660
EE40
CC80
DD00
6E00
ENDCHAR
STARTCHAR uni1EF0
ENCODING 7920
SWIDTH 776 0
DWIDTH 10 0
BBX 11 12 1 -3
BITMAP
F7E0
6360
6340
6380
E700
C600
C600
CE00
7C00
0000
0800
0800
ENDCHAR
STARTCHAR uni1EF1
ENCODING 7921
SWIDTH 634 0
DWIDTH 8 0
BBX 11 9 0 -3
BITMAP
E660
6660
EE40
CC80
DD00
6E00
0000
0800
0800
ENDCHAR
STARTCHAR Ygrave
ENCODING 7922
SWIDTH 622 0
DWIDTH 8 0
BBX 8 12 1 0
BITMAP
30
18
00
F7
66
64
68
30
70
60
60
F0
ENDCHAR
STARTCHAR ygrave
ENCODING 7923
SWIDTH 489 0
DWIDTH 6 0
BBX 7 12 -1 -3
BITMAP
30
18
00
76
36
34
38
38
30
30
A0
C0
ENDCHAR
STARTCHAR uni1EF4
ENCODING 7924
SWIDTH 622 0
DWIDTH 8 0
BBX 8 12 1 -3
BITMAP
F7
66
64
68
30
70
60
60
F0
00
20
20
ENDCHAR
STARTCHAR uni1EF5
ENCODING 7925
SWIDTH 489 0
DWIDTH 6 0
BBX 7 12 -1 -6
BITMAP
76
36
34
38
38
30
30
A0
C0
00
20
20
ENDCHAR
STARTCHAR uni1EF8
ENCODING 7928
SWIDTH 622 0
DWIDTH 8 0
BBX 8 12 1 0
BITMAP
1A
2C
00
F7
66
64
68
30
70
60
60
F0
ENDCHAR
STARTCHAR uni1EF9
ENCODING 7929
SWIDTH 489 0
DWIDTH 6 0
BBX 7 12 -1 -3
BITMAP
1A
2C
00
76
36
34
38
38
30
30
A0
C0
ENDCHAR
STARTCHAR uni2000
ENCODING 8192
SWIDTH 500 0
DWIDTH 6 0
BBX 1 1 0 0
BITMAP
00
ENDCHAR
STARTCHAR uni2001
ENCODING 8193
SWIDTH 1000 0
DWIDTH 13 0
BBX 1 1 0 0
BITMAP
00
ENDCHAR
STARTCHAR uni2002
ENCODING 8194
SWIDTH 500 0
DWIDTH 6 0
BBX 1 1 0 0
BITMAP
00
ENDCHAR
STARTCHAR uni2003
ENCODING 8195
SWIDTH 1000 0
DWIDTH 13 0
BBX 1 1 0 0
BITMAP
00
ENDCHAR
STARTCHAR uni2004
ENCODING 8196
SWIDTH 333 0
DWIDTH 4 0
BBX 1 1 0 0
BITMAP
00
ENDCHAR
STARTCHAR uni2005
ENCODING 8197
SWIDTH 250 0
DWIDTH 3 0
BBX 1 1 0 0
BITMAP
00
ENDCHAR
STARTCHAR uni2006
ENCODING 8198
SWIDTH 167 0
DWIDTH 2 0
BBX 1 1 0 0
BITMAP
00
ENDCHAR
STARTCHAR uni2007
ENCODING 8199
SWIDTH 560 0
DWIDTH 7 0
BBX 1 1 0 0
BITMAP
00
ENDCHAR
STARTCHAR uni2008
ENCODING 8200
SWIDTH 280 0
DWIDTH 3 0
BBX 1 1 0 0
BITMAP
00
ENDCHAR
STARTCHAR uni2009
ENCODING 8201
SWIDTH 200 0
DWIDTH 3 0
BBX 1 1 0 0
BITMAP
00
ENDCHAR
STARTCHAR uni200A
ENCODING 8202
SWIDTH 100 0
DWIDTH 1 0
BBX 1 1 0 0
BITMAP
00
ENDCHAR
STARTCHAR uni200B
ENCODING 8203
SWIDTH 0 0
DWIDTH 0 0
BBX 1 1 0 0
BITMAP
00
ENDCHAR
STARTCHAR uni2010
ENCODING 8208
SWIDTH 392 0
DWIDTH 5 0
BBX 3 1 1 3
BITMAP
E0
ENDCHAR
STARTCHAR uni2011
ENCODING 8209
SWIDTH 392 0
DWIDTH 5 0
BBX 3 1 1 3
BITMAP
E0
ENDCHAR
STARTCHAR figuredash
ENCODING 8210
SWIDTH 500 0
DWIDTH 6 0
BBX 6 1 0 3
BITMAP
FC
ENDCHAR
STARTCHAR endash
ENCODING 8211
SWIDTH 500 0
DWIDTH 6 0
BBX 6 1 0 3
BITMAP
FC
ENDCHAR
STARTCHAR emdash
ENCODING 8212
SWIDTH 1000 0
DWIDTH 12 0
BBX 12 1 0 3
BITMAP
FFF0
ENDCHAR
STARTCHAR afii00208
ENCODING 8213
SWIDTH 1000 0
DWIDTH 12 0
BBX 12 1 0 3
BITMAP
FFF0
ENDCHAR
STARTCHAR quoteleft
ENCODING 8216
SWIDTH 246 0
DWIDTH 3 0
BBX 3 4 0 5
BITMAP
20
40
C0
C0
ENDCHAR
STARTCHAR quoteright
ENCODING 8217
SWIDTH 246 0
DWIDTH 3 0
BBX 3 4 0 5
BITMAP
60
60
40
80
ENDCHAR
STARTCHAR quotesinglbase
ENCODING 8218
SWIDTH 246 0
DWIDTH 3 0
BBX 3 4 -1 -2
BITMAP
60
60
40
80
ENDCHAR
STARTCHAR quotereversed
ENCODING 8219
SWIDTH 246 0
DWIDTH 3 0
BBX 3 4 0 5
BITMAP
C0
C0
40
20
ENDCHAR
STARTCHAR quotedblleft
ENCODING 8220
SWIDTH 455 0
DWIDTH 6 0
BBX 6 4 0 5
BITMAP
24
48
D8
D8
ENDCHAR
STARTCHAR quotedblright
ENCODING 8221
SWIDTH 455 0
DWIDTH 6 0
BBX 6 4 0 5
BITMAP
6C
6C
48
90
ENDCHAR
STARTCHAR quotedblbase
ENCODING 8222
SWIDTH 455 0
DWIDTH 6 0
BBX 6 4 -1 -2
BITMAP
6C
6C
48
90
ENDCHAR
STARTCHAR uni201F
ENCODING 8223
SWIDTH 455 0
DWIDTH 6 0
BBX 6 4 0 5
BITMAP
D8
D8
48
24
ENDCHAR
STARTCHAR dagger
ENCODING 8224
SWIDTH 514 0
DWIDTH 6 0
BBX 6 11 0 -2
BITMAP
18
18
10
FC
30
30
20
20
60
40
40
ENDCHAR
STARTCHAR daggerdbl
ENCODING 8225
SWIDTH 490 0
DWIDTH 6 0
BBX 6 11 0 -2
BITMAP
18
18
10
7C
30
30
20
F8
20
60
60
ENDCHAR
STARTCHAR bullet
ENCODING 8226
SWIDTH 465 0
DWIDTH 7 0
BBX 5 5 1 2
BITMAP
70
F8
F8
F8
70
ENDCHAR
STARTCHAR ellipsis
ENCODING 8230
SWIDTH 1000 0
DWIDTH 12 0
BBX 10 2 0 0
BITMAP
CCC0
CCC0
ENDCHAR
STARTCHAR perthousand
ENCODING 8240
SWIDTH 1297 0
DWIDTH 16 0
BBX 15 9 1 0
BITMAP
7100
DF00
9200
B400
EDCE
0B5A
1252
32D6
239C
ENDCHAR
STARTCHAR guilsinglleft
ENCODING 8249
SWIDTH 360 0
DWIDTH 4 0
BBX 4 6 0 0
BITMAP
10
30
60
C0
40
20
ENDCHAR
STARTCHAR guilsinglright
ENCODING 8250
SWIDTH 360 0
DWIDTH 4 0
BBX 4 6 0 0
BITMAP
40
20
30
60
C0
80
ENDCHAR
STARTCHAR fraction
ENCODING 8260
SWIDTH 100 0
DWIDTH 1 0
BBX 6 9 -2 0
BITMAP
04
0C
08
10
30
20
40
C0
80
ENDCHAR
STARTCHAR oneinferior
ENCODING 8321
SWIDTH 402 0
DWIDTH 5 0
BBX 4 6 0 -3
BITMAP
70
30
30
60
60
F0
ENDCHAR
STARTCHAR twoinferior
ENCODING 8322
SWIDTH 402 0
DWIDTH 5 0
BBX 5 6 0 -3
BITMAP
70
58
30
60
D0
F0
ENDCHAR
STARTCHAR threeinferior
ENCODING 8323
SWIDTH 402 0
DWIDTH 5 0
BBX 5 6 0 -3
BITMAP
70
18
60
30
B0
E0
ENDCHAR
STARTCHAR uni20A5
ENCODING 8357
SWIDTH 914 0
DWIDTH 12 0
BBX 12 9 0 -1
BITMAP
0300
0300
EFC0
7760
6660
EEE0
CCD0
CCE0
0C00
ENDCHAR
STARTCHAR uni20A6
ENCODING 8358
SWIDTH 741 0
DWIDTH 9 0
BBX 10 9 -1 0
BITMAP
71C0
3880
3880
3F80
6D00
7F00
4700
4300
E300
ENDCHAR
STARTCHAR uni20A9
ENCODING 8361
SWIDTH 920 0
DWIDTH 12 0
BBX 13 9 0 0
BITMAP
F338
6310
6720
6FE0
6B40
6FC0
7380
7380
6300
ENDCHAR
STARTCHAR Euro
ENCODING 8364
SWIDTH 672 0
DWIDTH 8 0
BBX 9 9 -1 0
BITMAP
0F80
3980
3080
FC00
7000
FC00
6100
6300
3E00
ENDCHAR
STARTCHAR uni20AD
ENCODING 8365
SWIDTH 688 0
DWIDTH 9 0
BBX 9 9 0 0
BITMAP
7B80
3300
3200
3400
FF80
6E00
6600
6700
F380
ENDCHAR
STARTCHAR uni2103
ENCODING 8451
SWIDTH 1028 0
DWIDTH 14 0
BBX 13 9 1 0
BITMAP
60F8
9398
9308
6700
0700
0600
0610
0630
03E0
ENDCHAR
STARTCHAR uni2109
ENCODING 8457
SWIDTH 941 0
DWIDTH 13 0
BBX 13 9 1 0
BITMAP
63F8
9198
9188
61A0
03E0
0320
0300
0300
0780
ENDCHAR
STARTCHAR trademark
ENCODING 8482
SWIDTH 1100 0
DWIDTH 14 0
BBX 13 5 1 4
BITMAP
FB18
A9B0
2150
2110
73B8
ENDCHAR
STARTCHAR uni212A
ENCODING 8490
SWIDTH 688 0
DWIDTH 9 0
BBX 9 9 0 0
BITMAP
7B80
3300
3200
3400
7C00
6E00
6600
6700
F380
ENDCHAR
STARTCHAR uni212B
ENCODING 8491
SWIDTH 634 0
DWIDTH 8 0
BBX 9 10 -1 0
BITMAP
0600
0900
0600
0600
0E00
1600
1300
3F00
4300
E780
ENDCHAR
STARTCHAR uni2132
ENCODING 8498
SWIDTH 585 0
DWIDTH 7 0
BBX 8 9 0 0
BITMAP
0F
06
06
26
3E
2C
8C
CC
FE
ENDCHAR
STARTCHAR minus
ENCODING 8722
SWIDTH 600 0
DWIDTH 7 0
BBX 6 1 0 3
BITMAP
FC
ENDCHAR
STARTCHAR fraction
ENCODING 8725
SWIDTH 100 0
DWIDTH 1 0
BBX 6 9 -2 0
BITMAP
04
0C
08
10
30
20
40
C0
80
ENDCHAR
STARTCHAR periodcentered
ENCODING 8729
SWIDTH 280 0
DWIDTH 4 0
BBX 2 2 0 3
BITMAP
C0
C0
ENDCHAR
STARTCHAR uni2236
ENCODING 8758
SWIDTH 280 0
DWIDTH 3 0
BBX 3 6 0 0
BITMAP
60
60
00
00
C0
C0
ENDCHAR
STARTCHAR uni2259
ENCODING 8793
SWIDTH 600 0
DWIDTH 7 0
BBX 6 6 0 2
BITMAP
30
58
00
FC
00
FC
ENDCHAR
STARTCHAR uni225A
ENCODING 8794
SWIDTH 600 0
DWIDTH 7 0
BBX 6 6 0 2
BITMAP
68
30
00
FC
00
FC
ENDCHAR
STARTCHAR notequal
ENCODING 8800
SWIDTH 600 0
DWIDTH 7 0
BBX 6 9 0 -1
BITMAP
18
18
18
FC
30
FC
60
60
60
ENDCHAR
STARTCHAR equivalence
ENCODING 8801
SWIDTH 600 0
DWIDTH 7 0
BBX 6 5 0 1
BITMAP
FC
00
FC
00
FC
ENDCHAR
STARTCHAR uni2262
ENCODING 8802
SWIDTH 600 0
DWIDTH 7 0
BBX 6 9 0 -1
BITMAP
18
18
FC
30
FC
30
FC
60
60
ENDCHAR
STARTCHAR lessequal
ENCODING 8804
SWIDTH 600 0
DWIDTH 7 0
BBX 6 7 0 -1
BITMAP
0C
30
C0
30
0C
00
FC
ENDCHAR
STARTCHAR greaterequal
ENCODING 8805
SWIDTH 600 0
DWIDTH 7 0
BBX 6 7 0 -1
BITMAP
C0
30
0C
30
C0
00
FC
ENDCHAR
STARTCHAR uni226E
ENCODING 8814
SWIDTH 600 0
DWIDTH 7 0
BBX 6 9 0 -1
BITMAP
18
18
1C
30
F0
30
6C
60
60
ENDCHAR
STARTCHAR uni226F
ENCODING 8815
SWIDTH 600 0
DWIDTH 7 0
BBX 6 9 0 -1
BITMAP
18
18
D8
30
3C
30
E0
60
60
ENDCHAR
STARTCHAR uni2270
ENCODING 8816
SWIDTH 600 0
DWIDTH 7 0
BBX 6 9 0 -2
BITMAP
18
1C
38
F0
30
3C
60
FC
60
ENDCHAR
STARTCHAR uni2271
ENCODING 8817
SWIDTH 600 0
DWIDTH 7 0
BBX 6 9 0 -2
BITMAP
18
D8
38
3C
30
F0
60
FC
60
ENDCHAR
STARTCHAR fi
ENCODING -1
SWIDTH 651 0
DWIDTH 8 0
BBX 10 13 -2 -3
BITMAP
0780
0DC0
0CC0
0C00
3F80
1980
1980
1B00
3B40
3380
3000
B000
E000
ENDCHAR
STARTCHAR fl
ENCODING -1
SWIDTH 652 0
DWIDTH 8 0
BBX 10 13 -2 -3
BITMAP
07C0
0CC0
0DC0
0D80
3F80
1980
1B80
1B00
3B40
3380
3000
B000
E000
ENDCHAR
ENDFONT
